<svg width="116" height="115" viewBox="0 0 116 115" fill="none" xmlns="http://www.w3.org/2000/svg">
  <path
    d="M57.9953 28.8906C30.3761 28.8906 24.7871 34.4758 24.7871 62.0988C24.7871 89.7218 30.3723 95.307 57.9953 95.307C85.6183 95.307 91.2034 89.7218 91.2034 62.0988C91.2034 34.4758 85.6183 28.8906 57.9953 28.8906Z"
    fill="url(#paint0_linear_6707_22738)" />
  <path
    d="M57.9998 97.2262C29.4415 97.2262 22.875 90.6597 22.875 62.1014C22.875 33.5431 29.4415 26.9766 57.9998 26.9766C86.5582 26.9766 93.1247 33.5431 93.1247 62.1014C93.1247 90.6597 86.5582 97.2262 57.9998 97.2262ZM57.9998 29.2804C30.6988 29.2804 25.175 34.8004 25.175 62.1052C25.175 89.4101 30.695 94.9301 57.9998 94.9301C85.3047 94.9301 90.8247 89.4101 90.8247 62.1052C90.8247 34.8004 85.3047 29.2804 57.9998 29.2804Z"
    fill="#191C58" />
  <path
    d="M81.8555 55.8612C77.244 47.1404 72.8433 44.0469 58.8057 44.0469H57.1957C43.1542 44.0469 38.7535 47.1404 34.1458 55.8612C32.6968 58.602 31.8535 63.248 31.8535 66.33C31.8535 69.412 32.6968 74.058 34.1458 76.7989C38.7573 85.5197 43.158 88.6132 57.1957 88.6132H58.8057C72.8472 88.6132 77.2478 85.5197 81.8555 76.7989C83.3045 74.058 84.1479 69.642 84.1479 66.33C84.1479 63.018 83.3045 58.602 81.8555 55.8612Z"
    fill="#191C58" stroke="#191C58" stroke-width="1.07" stroke-miterlimit="10"
    stroke-linecap="round" />
  <path
    d="M58.0004 80.3823C54.8916 80.3823 52.7794 78.7302 52.0051 78.0057C51.6562 77.6798 51.6371 77.1317 51.9629 76.7828C52.2887 76.434 52.8369 76.4148 53.1857 76.7407C53.6841 77.2045 55.5087 78.7187 58.1806 78.6497C60.5879 78.5883 62.2209 77.2927 62.8112 76.7407C63.1601 76.4148 63.7044 76.434 64.0341 76.779C64.3599 77.1278 64.3446 77.6722 63.9957 78.0018C63.2597 78.6918 61.2281 80.298 58.2266 80.3785C58.1499 80.3785 58.0732 80.3785 58.0004 80.3785V80.3823Z"
    fill="#61CD80" />
  <path
    d="M80.1029 66.8045C80.1029 65.6506 79.3784 65.367 76.1123 65.344C75.6485 63.8873 74.4985 63.5078 71.9647 63.5078C68.3192 63.5078 67.541 64.2898 67.541 67.9315C67.541 71.5731 68.323 72.3551 71.9647 72.3551C75.6063 72.3551 76.3347 71.6153 76.3845 68.2611C79.4205 68.2266 80.1029 67.9238 80.1029 66.8045Z"
    fill="#61CD80" />
  <path
    d="M44.0001 63.5078C41.4662 63.5078 40.3201 63.8873 39.8524 65.344C36.6132 65.367 35.8926 65.6545 35.8926 66.8045C35.8926 67.9545 36.5711 68.2228 39.5802 68.2611C39.6301 71.6153 40.4696 72.359 44.0001 72.359C47.5306 72.359 48.4237 71.577 48.4237 67.9353C48.4237 64.2936 47.6417 63.5116 44.0001 63.5116V63.5078Z"
    fill="#61CD80" />
  <path
    d="M57.9998 38.5348C63.7329 38.5348 68.3805 33.8872 68.3805 28.1541C68.3805 22.421 63.7329 17.7734 57.9998 17.7734C52.2667 17.7734 47.6191 22.421 47.6191 28.1541C47.6191 33.8872 52.2667 38.5348 57.9998 38.5348Z"
    fill="#61CD80" />
  <defs>
    <linearGradient id="paint0_linear_6707_22738" x1="57.9953" y1="95.3031" x2="57.9953"
      y2="28.8906" gradientUnits="userSpaceOnUse">
      <stop stop-color="#CCCCCC" />
      <stop offset="0.8" stop-color="white" />
    </linearGradient>
  </defs>
</svg>
  