<svg width="116" height="115" viewBox="0 0 116 115" fill="none" xmlns="http://www.w3.org/2000/svg">
  <path
    d="M90.0616 51.121H88.4017C88.4056 51.4354 88.4094 51.7535 88.4094 52.0717C88.4094 58.2165 87.4511 63.7672 85.9062 67.7462H90.0616C92.2772 67.7462 94.0751 64.024 94.0751 59.4317C94.0751 54.8393 92.2772 51.1172 90.0616 51.1172V51.121Z"
    fill="#191C58" />
  <path
    d="M88.8049 52.1273C88.8049 70.9068 75.8444 91.5072 59.8556 91.5072C43.8667 91.5072 30.9062 70.9068 30.9062 52.1273C30.9062 33.3478 43.8667 23.5 59.8556 23.5C75.8444 23.5 88.8049 33.3478 88.8049 52.1273Z"
    fill="url(#paint0_radial_6707_22746)" />
  <path
    d="M59.8547 92.5795C51.9925 92.5795 44.4102 87.9259 38.503 79.4734C32.9907 71.5844 29.832 61.6177 29.832 52.1264C29.832 42.635 32.8834 35.2789 38.6602 29.9774C43.9655 25.1052 51.4942 22.4219 59.8585 22.4219C68.2229 22.4219 75.7477 25.1052 81.0569 29.9774C86.8299 35.2789 89.885 42.9379 89.885 52.1264C89.885 61.3149 86.7225 71.5844 81.214 79.4734C75.3069 87.9259 67.7245 92.5795 59.8624 92.5795H59.8547ZM59.8547 24.5724C42.9229 24.5724 31.9825 35.3862 31.9825 52.1225C31.9825 69.8364 44.1572 90.4252 59.8547 90.4252C72.7424 90.4252 87.7269 73.6927 87.7269 52.1225C87.7269 35.3862 76.7865 24.5724 59.8547 24.5724Z"
    fill="#191C58" />
  <path opacity="0.9"
    d="M50.7168 42.4647C47.1633 41.5869 43.3568 40.2146 39.9835 41.6636C33.0375 44.6497 33.9651 55.4904 38.0745 60.3242C42.6361 65.6909 50.9085 67.0326 57.4366 67.7379C62.8915 68.3244 68.4306 68.0676 73.8088 66.9636C78.175 66.0704 82.6676 65.7714 86.2633 62.8772C92.9371 57.4991 94.8308 48.0767 87.674 42.1811C83.373 38.6391 78.3628 39.7047 73.529 41.1001C65.8661 43.3119 58.6096 44.4082 50.7168 42.4647Z"
    fill="url(#paint1_linear_6707_22746)" />
  <path
    d="M51.0855 60.2851C50.9743 60.2851 50.8593 60.2851 50.7443 60.2774C46.1443 60.0513 42.6407 55.2826 42.4912 55.0833L42.0273 54.4469L42.6522 53.9678C45.1093 52.0971 48.2297 51.3994 51.212 52.0511C53.8493 52.6299 56.0842 54.2208 57.1843 56.2984L57.445 56.7929L57.0732 57.2108C55.2638 59.2501 53.2475 60.2851 51.0778 60.2851H51.0855ZM44.3197 54.7728C45.3738 55.9879 47.9153 58.5256 50.8287 58.6636C52.4693 58.7403 54.0218 58.0388 55.4747 56.5668C54.5163 55.1369 52.8373 54.0559 50.8708 53.6228C48.6207 53.1283 46.2785 53.5461 44.3197 54.7728Z"
    fill="#191C58" />
  <path
    d="M75.4375 60.2872C73.2678 60.2872 71.2515 59.2561 69.4421 57.2129L69.0703 56.7951L69.331 56.3006C70.4311 54.2229 72.666 52.6321 75.3033 52.0532C78.2856 51.3977 81.406 52.0954 83.8631 53.9699L84.488 54.4491L84.0241 55.0854C83.8785 55.2886 80.371 60.0572 75.771 60.2796C75.656 60.2834 75.5448 60.2872 75.4298 60.2872H75.4375ZM71.0483 56.5727C72.5011 58.0447 74.0651 58.7462 75.6981 58.6696C78.6191 58.5277 81.1491 55.9939 82.2033 54.7787C80.2445 53.5521 77.9023 53.1381 75.6521 53.6287C73.6856 54.0619 72.0066 55.1429 71.0483 56.5727Z"
    fill="#191C58" />
  <path
    d="M65.119 73.085C64.7778 73.085 64.4596 72.8665 64.3523 72.5215C64.2181 72.096 64.4519 71.6437 64.8774 71.5095C65.6978 71.2488 66.4568 70.8502 67.1353 70.325C67.2656 70.2253 67.4036 70.1103 67.4649 70.003C67.6489 69.6887 67.6796 68.9872 67.5263 68.5233C66.6523 65.886 66.3073 63.0455 65.9738 60.297L65.9508 60.1053C65.5751 57.0042 65.2109 52.9408 65.7706 48.9887C66.0849 46.75 67.1429 44.9982 68.9139 43.7792C72.4713 41.3297 78.4743 41.5367 82.9056 42.5448C83.3388 42.6445 83.6109 43.0777 83.5113 43.5108C83.4116 43.944 82.9784 44.2162 82.5453 44.1165C78.4474 43.1812 72.9543 42.9512 69.8263 45.1055C68.4233 46.0715 67.6183 47.417 67.3653 49.2148C66.8324 52.9792 67.1851 56.9083 67.5493 59.9137L67.5723 60.1053C67.8981 62.7733 68.2316 65.5372 69.0519 68.0212C69.3126 68.8032 69.3241 70.0183 68.8449 70.8272C68.6456 71.1645 68.3773 71.3983 68.1166 71.6015C67.2886 72.2455 66.3609 72.7323 65.3566 73.0505C65.2761 73.0773 65.1918 73.0888 65.1113 73.0888L65.119 73.085Z"
    fill="#191C58" />
  <path
    d="M70.7232 77.2434C69.0634 79.3555 66.4414 80.678 63.7542 80.7547C61.9832 80.8084 60.2045 80.3177 58.6904 79.4015C58.307 79.1715 56.743 78.286 56.7699 77.7685C56.8197 76.7412 69.3969 77.2549 70.727 77.2434H70.7232Z"
    fill="#191C58" />
  <path
    d="M35.2868 58.9642C34.846 54.575 33.604 51.3895 31.5417 51.148V51.125H25.9373C23.7217 51.125 21.9238 54.8472 21.9238 59.4395C21.9238 64.0318 23.7217 67.754 25.9373 67.754H33.1555V67.7195C34.8805 67.2748 35.6127 62.1918 35.2868 58.968V58.9642Z"
    fill="#191C58" />
  <defs>
    <radialGradient id="paint0_radial_6707_22746" cx="0" cy="0" r="1" gradientUnits="userSpaceOnUse"
      gradientTransform="translate(59.8556 57.5017) scale(31.579 31.579)">
      <stop offset="0.53" stop-color="white" />
      <stop offset="1" stop-color="#CDE2F4" />
    </radialGradient>
    <linearGradient id="paint1_linear_6707_22746" x1="34.8736" y1="53.9149" x2="92.2241"
      y2="53.9149" gradientUnits="userSpaceOnUse">
      <stop stop-color="#8ACD61" />
      <stop offset="1" stop-color="#61CD80" />
    </linearGradient>
  </defs>
</svg>
  