<svg width="38" height="37" viewBox="0 0 38 37" fill="none" xmlns="http://www.w3.org/2000/svg">
  <g clip-path="url(#clip0_3243_15527)">
    <path
      d="M23.2201 15.7964C25.1954 15.7964 26.7967 14.1632 26.7967 12.1486C26.7967 10.134 25.1954 8.50085 23.2201 8.50085C21.2449 8.50085 19.6436 10.134 19.6436 12.1486C19.6436 14.1632 21.2449 15.7964 23.2201 15.7964Z"
      fill="#61CE80" />
    <path
      d="M25.6986 16.1412C27.6171 15.6582 29.4223 17.2937 29.1583 19.2905C28.6027 23.4868 25.6014 27.1118 21.3265 28.1879C17.0516 29.2641 12.7411 27.4793 10.3347 24.0289C9.18952 22.387 10.0422 20.0828 11.9598 19.5998L25.6986 16.1412Z"
      fill="#61CE80" />
    <path
      d="M12.7625 18.429C14.7378 18.429 16.339 16.7958 16.339 14.7812C16.339 12.7666 14.7378 11.1334 12.7625 11.1334C10.7872 11.1334 9.18597 12.7666 9.18597 14.7812C9.18597 16.7958 10.7872 18.429 12.7625 18.429Z"
      fill="#61CE80" />
  </g>
  <rect x="1.11091" y="0.426889" width="36.1462" height="36.1462" rx="18.0731" stroke="#EDF3FF"
    stroke-width="0.853778" />
  <defs>
    <clipPath id="clip0_3243_15527">
      <rect width="20" height="20" fill="white" transform="translate(9.18402 8.5)" />
    </clipPath>
  </defs>
</svg>