<svg width="110" height="110" viewBox="0 0 110 110" fill="none" xmlns="http://www.w3.org/2000/svg">
<g id="avatar-2 1">
<path id="Vector" d="M34.0194 50.41C44.3994 60.79 61.2394 60.79 71.6194 50.41C81.9994 40.03 81.9994 23.19 71.6194 12.81C61.2394 2.43002 44.3994 2.43002 34.0194 12.81C23.6394 23.19 23.6394 40.03 34.0194 50.41Z" fill="#47A6F4"/>
<path id="Vector_2" d="M78.2593 55.3C85.6893 52.93 93.2393 58.77 92.7093 66.55C91.6093 82.91 80.7294 97.72 64.1594 103.01C47.5894 108.3 30.1393 102.55 19.7593 89.86C14.8193 83.82 17.5793 74.69 25.0093 72.31L78.2593 55.3Z" fill="#47A6F4"/>
<path id="Vector_3" d="M51.21 42.01C50.71 42.01 50.27 41.65 50.19 41.14L47.52 24.95C46.76 24.33 45.19 23.33 43.02 23.28C40.39 23.22 38.59 24.59 37.94 25.18C37.52 25.56 36.86 25.53 36.48 25.1C36.1 24.68 36.13 24.02 36.56 23.64C37.4 22.89 39.7 21.14 43.07 21.21C46.23 21.28 48.39 22.93 49.18 23.64L49.45 23.88L52.24 40.8C52.33 41.36 51.95 41.9 51.39 41.99C51.33 41.99 51.28 42 51.22 42L51.21 42.01Z" fill="#191C58"/>
<path id="Vector_4" d="M52.8303 48.36C52.6703 48.36 52.5003 48.36 52.3303 48.36C50.8103 48.31 49.3003 48.02 47.8603 47.49C47.3203 47.29 47.0503 46.7 47.2403 46.16C47.4403 45.62 48.0303 45.35 48.5703 45.54C49.8103 45.99 51.0903 46.24 52.4003 46.28C53.9903 46.34 55.5703 46.08 57.0803 45.54C57.6203 45.35 58.2103 45.62 58.4103 46.16C58.6003 46.7 58.3303 47.29 57.7903 47.49C56.1903 48.07 54.5203 48.36 52.8303 48.36Z" fill="#191C58"/>
<path id="Vector_5" d="M47.4402 80.1199C43.0002 80.1199 39.5402 79.2199 37.9402 78.6999C37.3402 78.5099 37.0102 77.8699 37.2002 77.2699C37.3902 76.6699 38.0302 76.3399 38.6302 76.5299C41.8602 77.5599 53.2602 80.3199 64.3502 72.3999C73.9002 65.5899 77.2902 55.0799 78.3102 50.8799C78.4602 50.2699 79.0702 49.8899 79.6802 50.0399C80.2902 50.1899 80.6702 50.7999 80.5202 51.4099C79.4402 55.8599 75.8402 66.9799 65.6702 74.2399C59.2202 78.8499 52.6602 80.0999 47.4402 80.0999V80.1199Z" fill="#191C58"/>
</g>
</svg>
