<svg width="203" height="176" viewBox="0 0 203 176" fill="none" xmlns="http://www.w3.org/2000/svg">
  <path
    d="M201.657 175.524L202.408 175.509C202.117 167.156 201.226 158.835 199.741 150.609C196.493 133.001 191.091 121.437 183.687 116.238L183.256 116.853C200.553 129 201.648 175.059 201.657 175.524Z"
    fill="#191B59" />
  <path
    d="M192.267 175.344L193.018 175.329C193.002 174.497 192.532 154.892 184.818 149.473L184.387 150.088C191.79 155.288 192.264 175.144 192.267 175.344Z"
    fill="#191B59" />
  <path
    d="M178.983 116.924C181.057 116.924 182.739 115.242 182.739 113.168C182.739 111.094 181.057 109.412 178.983 109.412C176.908 109.412 175.227 111.094 175.227 113.168C175.227 115.242 176.908 116.924 178.983 116.924Z"
    fill="#61CE80" />
  <path
    d="M180.842 149.227C182.916 149.227 184.598 147.545 184.598 145.471C184.598 143.396 182.916 141.715 180.842 141.715C178.768 141.715 177.086 143.396 177.086 145.471C177.086 147.545 178.768 149.227 180.842 149.227Z"
    fill="#61CE80" />
  <path
    d="M194.018 119.177C193.642 122.074 194.033 125.019 195.152 127.718C197.107 125.533 198.389 122.829 198.843 119.932C199.296 117.035 198.902 114.069 197.708 111.391C195.817 113.618 194.545 116.303 194.018 119.177Z"
    fill="#191B59" />
  <path
    d="M181.743 130.127C184.53 131.002 187.498 131.131 190.351 130.499C188.54 128.193 186.101 126.459 183.327 125.508C180.553 124.556 177.564 124.428 174.719 125.137C176.583 127.387 179.005 129.107 181.743 130.127Z"
    fill="#191B59" />
  <path
    d="M181.604 158.726C183.557 159.34 185.638 159.429 187.637 158.986C186.367 157.37 184.657 156.155 182.713 155.489C180.769 154.822 178.674 154.731 176.68 155.228C177.986 156.805 179.684 158.012 181.604 158.726Z"
    fill="#191B59" />
  <path
    d="M93.9499 58.2896L69.7349 45.6976C69.7349 45.6976 61.6029 36.7426 56.4959 32.6976C51.3889 28.6526 49.8169 31.6246 49.8169 31.6246L47.6699 35.2026L52.8579 42.4186L66.8719 54.2856L91.9119 64.0936C92.3032 64.7355 92.8685 65.253 93.5423 65.5863C94.2161 65.9195 94.9706 66.0546 95.7182 65.976C96.4658 65.8973 97.1756 65.6081 97.7653 65.1419C98.355 64.6758 98.8002 64.0518 99.0493 63.3426C99.2984 62.6334 99.341 61.868 99.1723 61.1355C99.0036 60.403 98.6305 59.7335 98.0963 59.2047C97.5621 58.6759 96.8888 58.3095 96.1546 58.1482C95.4205 57.987 94.6556 58.0374 93.9489 58.2936L93.9499 58.2896Z"
    fill="#9F616A" />
  <path
    d="M30.9641 47.3998L29.5301 38.6288L25.4821 37.6168C25.4821 37.6168 22.2691 36.6268 21.5181 43.0988C20.7671 49.5708 21.3491 61.6528 21.3491 61.6528L13.1301 87.6788C12.4463 87.9968 11.8669 88.5024 11.4593 89.1369C11.0518 89.7715 10.8329 90.5087 10.8282 91.2628C10.8235 92.0169 11.0331 92.7568 11.4326 93.3964C11.8321 94.0359 12.4051 94.5489 13.0849 94.8754C13.7646 95.2019 14.5231 95.3286 15.2721 95.2406C16.0211 95.1527 16.7297 94.8538 17.3153 94.3788C17.901 93.9037 18.3396 93.2721 18.5802 92.5574C18.8207 91.8427 18.8533 91.0743 18.6741 90.3418L29.4451 65.7008L30.9641 47.3998Z"
    fill="#9F616A" />
  <path d="M64.4473 170.485H69.7473L72.2673 150.053H64.4493L64.4473 170.485Z" fill="#9F616A" />
  <path
    d="M63.0957 168.756H73.5277C75.2909 168.756 76.9818 169.456 78.2285 170.703C79.4753 171.95 80.1757 173.641 80.1757 175.404V175.62H63.0957V168.756Z"
    fill="#191B59" />
  <path d="M6.67092 170.485H11.9709L14.4909 150.053H6.66992L6.67092 170.485Z" fill="#9F616A" />
  <path
    d="M5.32422 168.756H15.7562C16.6293 168.756 17.4937 168.928 18.3003 169.262C19.1069 169.596 19.8397 170.086 20.4571 170.703C21.0744 171.32 21.5641 172.053 21.8982 172.86C22.2323 173.666 22.4042 174.531 22.4042 175.404V175.62H5.32422V168.756Z"
    fill="#191B59" />
  <path
    d="M32.8218 29.8795L24.0358 37.3795L31.2458 60.1976L32.8728 65.2975C32.8728 65.2975 22.9388 74.4566 16.7918 100.044C10.6448 125.631 0.591797 159.63 0.591797 159.63L21.8168 165.706L39.0878 107.817L59.3988 153.226L61.7438 166.657L79.8188 161.327L75.5548 127.644L54.2358 69.3376L56.4498 53.8816C57.3747 51.2362 57.6347 48.4039 57.2072 45.6343C56.7796 42.8648 55.6774 40.2429 53.9978 37.9996L52.1878 30.3266L45.6968 28.7266L32.8218 29.8795Z"
    fill="#191B59" />
  <path
    d="M47.4173 25.802H23.6633C23.1747 25.8015 22.7062 25.6071 22.3607 25.2616C22.0152 24.9161 21.8208 24.4476 21.8203 23.959V13.72C21.8203 10.0812 23.2658 6.59149 25.8388 4.01849C28.4118 1.44549 31.9015 0 35.5403 0C39.1791 0 42.6688 1.44549 45.2418 4.01849C47.8148 6.59149 49.2603 10.0812 49.2603 13.72V23.959C49.2598 24.4476 49.0655 24.9161 48.7199 25.2616C48.3744 25.6071 47.906 25.8015 47.4173 25.802Z"
    fill="#191B59" />
  <path
    d="M47.1865 20.3312C49.8512 15.4566 48.0597 9.34472 43.1851 6.68002C38.3104 4.01532 32.1986 5.80683 29.5339 10.6815C26.8692 15.5561 28.6607 21.668 33.5353 24.3327C38.41 26.9974 44.5218 25.2059 47.1865 20.3312Z"
    fill="#9F616A" />
  <path
    d="M52.5061 14.7444H37.9811L37.8321 12.6594L37.0871 14.7444H34.8501L34.5501 10.6114L33.0741 14.7444H28.7461V14.5444C28.7493 11.667 29.8937 8.90832 31.9284 6.87367C33.963 4.83903 36.7217 3.69458 39.5991 3.69141H41.6471C44.5244 3.69485 47.2829 4.83939 49.3175 6.87398C51.3521 8.90856 52.4967 11.6671 52.5001 14.5444L52.5061 14.7444Z"
    fill="#191B59" />
  <path
    d="M37.8624 27.7135C37.7531 27.7133 37.644 27.7036 37.5364 27.6845L26.9004 25.8075V8.23047H38.6084L38.3184 8.56848C34.2854 13.2685 37.3234 20.8985 39.4934 25.0265C39.6534 25.3288 39.7248 25.6701 39.6993 26.0112C39.6738 26.3523 39.5525 26.6793 39.3494 26.9545C39.1793 27.1897 38.9558 27.3812 38.6973 27.5133C38.4388 27.6454 38.1527 27.7144 37.8624 27.7145V27.7135Z"
    fill="#191B59" />
  <path
    d="M125.82 119.866L32.608 152.823C30.3032 153.635 27.7705 153.5 25.5655 152.447C23.3604 151.394 21.6631 149.509 20.846 147.206L4.83297 101.916C4.02094 99.6115 4.15628 97.0788 5.20931 94.8737C6.26235 92.6687 8.14704 90.9714 10.4499 90.1542L103.663 57.1982C105.968 56.3862 108.5 56.5215 110.705 57.5745C112.91 58.6276 114.608 60.5123 115.425 62.8152L131.438 108.105C132.25 110.41 132.114 112.942 131.061 115.147C130.008 117.352 128.123 119.049 125.82 119.866Z"
    fill="white" />
  <path
    d="M131.438 108.105L131.523 108.345C131.909 109.435 132.076 110.59 132.014 111.745C131.953 112.899 131.665 114.03 131.167 115.073C130.669 116.116 129.97 117.051 129.11 117.824C128.251 118.597 127.247 119.193 126.157 119.577L32.4771 152.698C31.3875 153.084 30.2328 153.25 29.0787 153.189C27.9247 153.128 26.794 152.84 25.7512 152.342C24.7084 151.844 23.7739 151.146 23.0011 150.286C22.2283 149.427 21.6323 148.424 21.2471 147.334L21.1621 147.094L131.438 108.105Z"
    fill="#F2F2F2" />
  <path
    d="M26.7908 100.67C20.6118 104.736 12.6908 101.676 9.92383 97.219L10.3658 96.968C15.6258 93.689 23.4368 95.516 26.7908 100.67Z"
    fill="#61CE80" />
  <path
    d="M104.218 112.204C103.574 112.472 102.883 112.603 102.186 112.591C101.489 112.578 100.803 112.422 100.17 112.131C97.5166 110.813 96.2696 106.905 95.2696 103.765C94.9786 102.851 94.7036 101.989 94.4236 101.283V101.272C93.9369 99.8733 94.0218 98.3386 94.6599 97.0018C95.298 95.6649 96.4377 94.6338 97.8316 94.1324L110.37 89.6993C111.012 89.4323 111.703 89.3009 112.399 89.3133C113.094 89.3257 113.78 89.4816 114.413 89.7714C117.065 91.0874 118.313 94.9944 119.313 98.1334C119.605 99.0484 119.881 99.9134 120.162 100.619C120.651 102.02 120.568 103.557 119.93 104.896C119.292 106.236 118.151 107.269 116.755 107.771L104.218 112.204ZM94.9477 101.082C95.2337 101.804 95.5106 102.674 95.8046 103.595C96.7726 106.635 97.9776 110.418 100.419 111.631C100.984 111.891 101.598 112.029 102.22 112.037C102.842 112.045 103.459 111.923 104.032 111.678L116.566 107.246C117.821 106.795 118.848 105.866 119.422 104.662C119.997 103.459 120.074 102.076 119.636 100.816C119.352 100.102 119.073 99.2294 118.778 98.3044C117.809 95.2654 116.603 91.4844 114.163 90.2734C113.597 90.0148 112.984 89.8771 112.363 89.8691C111.742 89.8612 111.125 89.9833 110.554 90.2274L98.0166 94.6603C96.7625 95.1116 95.7368 96.0391 95.1621 97.2417C94.5874 98.4443 94.5099 99.825 94.9466 101.084L94.9477 101.082Z"
    fill="#191B59" />
  <path
    d="M24.1912 102.134C21.5479 103.015 18.6918 103.023 16.0432 102.159C13.3945 101.295 11.093 99.6039 9.47723 97.3342L9.32422 97.0872L10.0132 96.6952C15.3522 93.3692 23.3592 95.1722 26.8132 100.482L26.9652 100.715L26.7332 100.868C25.9403 101.392 25.0867 101.817 24.1912 102.134ZM10.1092 97.2862C11.8969 99.7015 14.5162 101.368 17.4612 101.965C20.4427 102.661 23.5783 102.155 26.1892 100.556C22.8092 95.6662 15.3192 94.0442 10.3032 97.1752L10.1092 97.2862Z"
    fill="#191B59" />
  <path
    d="M27.4669 134.641C26.6841 134.951 25.8317 135.041 25.0012 134.903C24.1707 134.765 23.3935 134.404 22.7529 133.858C22.0026 133.203 21.4337 132.365 21.1009 131.427C20.7681 130.488 20.6827 129.479 20.8529 128.498C21.0113 127.653 21.4005 126.87 21.9771 126.233C22.5538 125.596 23.2954 125.132 24.1199 124.891L40.8259 118.985C41.6181 118.657 42.4853 118.554 43.3322 118.688C44.1791 118.821 44.9728 119.185 45.6259 119.741C46.3751 120.396 46.9429 121.234 47.2746 122.173C47.6063 123.112 47.6908 124.12 47.5199 125.101C47.3581 125.943 46.9675 126.724 46.3911 127.359C45.8146 127.994 45.0746 128.458 44.2519 128.701L27.5459 134.608L27.4669 134.641ZM24.2269 125.447C23.5142 125.667 22.875 126.077 22.3778 126.633C21.8806 127.189 21.5442 127.87 21.4049 128.603C21.2511 129.487 21.3275 130.395 21.6269 131.241C21.9262 132.087 22.4383 132.841 23.1139 133.432C23.693 133.922 24.3966 134.243 25.1468 134.358C25.897 134.473 26.6644 134.378 27.3639 134.084L44.0779 128.175C44.8075 127.964 45.4646 127.555 45.9764 126.994C46.4882 126.433 46.8348 125.742 46.9779 124.996C47.132 124.112 47.0559 123.203 46.757 122.358C46.458 121.512 45.9462 120.757 45.2709 120.167C44.6909 119.676 43.9869 119.356 43.2363 119.24C42.4858 119.124 41.7177 119.217 41.0169 119.51L24.3019 125.42L24.2269 125.447Z"
    fill="#191B59" />
  <path
    d="M104.33 98.879L99.0635 100.741C98.7223 100.835 98.3582 100.796 98.0446 100.632C97.7309 100.468 97.491 100.191 97.373 99.8576C97.2551 99.524 97.2678 99.158 97.4088 98.8334C97.5497 98.5088 97.8082 98.2496 98.1325 98.108L103.399 96.246C103.575 96.169 103.765 96.1291 103.957 96.1289C104.15 96.1287 104.34 96.1681 104.516 96.2447C104.693 96.3212 104.852 96.4334 104.983 96.574C105.114 96.7147 105.215 96.8809 105.279 97.0622C105.343 97.2435 105.369 97.4361 105.355 97.628C105.342 97.8198 105.289 98.0068 105.2 98.1773C105.111 98.3477 104.987 98.498 104.838 98.6187C104.688 98.7395 104.515 98.8281 104.33 98.879Z"
    fill="#61CE80" />
  <path
    d="M105.82 103.093L100.554 104.955C100.213 105.049 99.8484 105.01 99.5348 104.846C99.2212 104.682 98.9812 104.405 98.8633 104.072C98.7453 103.738 98.7581 103.372 98.899 103.048C99.0399 102.723 99.2985 102.464 99.6227 102.322L104.889 100.46C105.23 100.366 105.594 100.405 105.908 100.569C106.221 100.733 106.461 101.01 106.579 101.343C106.697 101.677 106.684 102.043 106.544 102.368C106.403 102.692 106.144 102.951 105.82 103.093Z"
    fill="#61CE80" />
  <path
    d="M107.308 107.304L102.042 109.166C101.866 109.243 101.676 109.283 101.484 109.283C101.291 109.283 101.101 109.244 100.925 109.167C100.748 109.091 100.589 108.979 100.458 108.838C100.327 108.697 100.226 108.531 100.162 108.35C100.098 108.168 100.072 107.976 100.086 107.784C100.099 107.592 100.152 107.405 100.241 107.235C100.33 107.064 100.454 106.914 100.603 106.793C100.753 106.672 100.926 106.584 101.111 106.533L106.377 104.671C106.719 104.577 107.083 104.616 107.396 104.78C107.71 104.944 107.95 105.221 108.068 105.554C108.186 105.888 108.173 106.254 108.032 106.579C107.891 106.903 107.633 107.162 107.308 107.304Z"
    fill="#61CE80" />
  <path
    d="M113.551 95.6185L108.285 97.4805C108.108 97.5575 107.918 97.5973 107.726 97.5975C107.534 97.5978 107.343 97.5583 107.167 97.4818C106.99 97.4052 106.832 97.2931 106.7 97.1524C106.569 97.0118 106.468 96.8456 106.404 96.6643C106.34 96.4829 106.314 96.2903 106.328 96.0985C106.341 95.9066 106.394 95.7196 106.483 95.5492C106.573 95.3787 106.696 95.2284 106.845 95.1077C106.995 94.987 107.168 94.8984 107.354 94.8475L112.62 92.9855C112.961 92.8918 113.325 92.9308 113.639 93.0947C113.952 93.2586 114.192 93.5352 114.31 93.8688C114.428 94.2025 114.415 94.5684 114.274 94.893C114.134 95.2176 113.875 95.4768 113.551 95.6185Z"
    fill="#61CE80" />
  <path
    d="M115.035 99.834L109.769 101.696C109.593 101.773 109.403 101.813 109.21 101.813C109.018 101.813 108.828 101.774 108.651 101.697C108.475 101.621 108.316 101.509 108.185 101.368C108.054 101.227 107.953 101.061 107.889 100.88C107.825 100.698 107.798 100.506 107.812 100.314C107.826 100.122 107.879 99.9352 107.968 99.7647C108.057 99.5943 108.18 99.444 108.33 99.3233C108.48 99.2025 108.653 99.114 108.838 99.0631L114.104 97.2011C114.28 97.1241 114.471 97.0842 114.663 97.084C114.855 97.0838 115.046 97.1232 115.222 97.1998C115.398 97.2764 115.557 97.3885 115.688 97.5291C115.82 97.6698 115.92 97.8359 115.984 98.0173C116.049 98.1986 116.075 98.3912 116.061 98.5831C116.047 98.7749 115.994 98.9619 115.905 99.1324C115.816 99.3028 115.693 99.4531 115.543 99.5738C115.394 99.6945 115.221 99.7831 115.035 99.834Z"
    fill="#61CE80" />
  <path
    d="M116.525 104.045L111.259 105.907C110.918 106.001 110.554 105.962 110.24 105.798C109.926 105.634 109.686 105.358 109.568 105.024C109.45 104.69 109.463 104.324 109.604 104C109.745 103.675 110.004 103.416 110.328 103.274L115.597 101.409C115.938 101.316 116.302 101.355 116.616 101.519C116.929 101.682 117.169 101.959 117.287 102.293C117.405 102.626 117.393 102.992 117.252 103.317C117.111 103.641 116.852 103.901 116.528 104.042L116.525 104.045Z"
    fill="#61CE80" />
  <path d="M118.936 72.7124L8.63672 111.662L8.82287 112.189L119.122 73.2396L118.936 72.7124Z"
    fill="#191B59" />
  <path
    d="M125.82 119.866L32.608 152.823C30.3032 153.635 27.7705 153.5 25.5655 152.447C23.3604 151.394 21.6631 149.509 20.846 147.206L4.83297 101.916C4.02094 99.6115 4.15628 97.0788 5.20931 94.8737C6.26235 92.6687 8.14704 90.9714 10.4499 90.1542L103.663 57.1982C105.968 56.3862 108.5 56.5215 110.705 57.5745C112.91 58.6276 114.608 60.5123 115.425 62.8152L131.438 108.105C132.25 110.41 132.114 112.942 131.061 115.147C130.008 117.352 128.123 119.049 125.82 119.866ZM10.635 90.6812C8.47163 91.4488 6.7011 93.0432 5.71182 95.1146C4.72253 97.1859 4.59528 99.5651 5.35797 101.73L21.371 147.02C22.1386 149.184 23.7329 150.954 25.8043 151.943C27.8757 152.933 30.2549 153.06 32.4199 152.297L125.633 119.341C127.796 118.573 129.566 116.979 130.555 114.907C131.544 112.835 131.671 110.456 130.908 108.291L114.898 63.0012C114.13 60.8379 112.536 59.0673 110.465 58.0781C108.393 57.0888 106.014 56.9615 103.849 57.7242L10.635 90.6812Z"
    fill="#191B59" />
</svg>
  