<svg width="358" height="200" viewBox="0 0 358 200" fill="none" xmlns="http://www.w3.org/2000/svg">
  <path
    d="M310.932 51.0347C303.533 24.2997 276.917 6.72967 248.103 7.60467V7.55467C242.978 7.36967 235.29 7.28967 226.035 7.99967C153.935 13.5347 105.8 57.7647 93.8363 69.0797C82.6991 79.6097 54.9078 106.5 41.442 149.33C39.7663 154.655 38.5149 159.6 37.5574 164.03C33.7271 178.19 33.825 180.265 33.825 180.265H33.8359C33.7978 180.735 33.7869 181.205 33.8141 181.685C34.1678 188.145 40.1526 193.115 47.182 192.79C50.6967 192.63 53.7979 191.17 55.9851 188.945L56.0667 188.86C56.1483 188.775 56.2299 188.69 56.3061 188.6L62.5194 181.915C76.0396 168.52 99.8374 148.815 135.316 135.285C180.007 118.245 219.697 119.98 238.63 121.955C247.308 123.445 256.471 123.27 265.589 121.14C299.18 113.285 319.48 81.8947 310.938 51.0297L310.932 51.0347Z"
    fill="#F4BD34" />
  <path
    d="M276.373 111.465L168.429 127.075C163.021 127.855 157.95 124.465 157.101 119.495L144.468 45.7151C143.619 40.7451 147.308 36.0851 152.716 35.3051L299.703 14.0501C305.111 13.2701 310.181 16.6601 311.03 21.6301L318.81 67.0551L312.755 72.4851L320.345 76.0251L321.977 85.5751L276.373 111.46V111.465Z"
    fill="#191C58" />
  <path
    d="M181.697 55.7841L170.158 57.4524C167.961 57.7699 166.461 59.6638 166.806 61.6824L168.155 69.5605C168.5 71.5791 170.561 72.9581 172.758 72.6406L184.297 70.9724C186.494 70.6548 187.994 68.761 187.649 66.7423L186.3 58.8642C185.954 56.8456 183.894 55.4666 181.697 55.7841Z"
    fill="#9B9B9B" />
  <path
    d="M182.324 71.6896C182.09 71.6896 181.884 71.5345 181.846 71.3095L179.256 56.1946C179.212 55.9496 179.397 55.7196 179.658 55.6846C179.919 55.6446 180.175 55.8146 180.213 56.0546L182.803 71.1695C182.847 71.4145 182.662 71.6446 182.4 71.6796C182.373 71.6796 182.351 71.6845 182.324 71.6845V71.6896Z"
    fill="#191C58" />
  <path
    d="M175.143 72.7297C174.909 72.7297 174.702 72.5747 174.664 72.3497L173.015 62.7397L167.134 63.5897C166.867 63.6297 166.617 63.4597 166.579 63.2197C166.541 62.9797 166.72 62.7447 166.981 62.7097L173.826 61.7197L175.621 72.2147C175.665 72.4597 175.48 72.6897 175.219 72.7247C175.191 72.7247 175.17 72.7297 175.143 72.7297Z"
    fill="#191C58" />
  <path
    d="M281.846 94.6548C287.782 93.7948 291.841 88.6748 290.905 83.2198C289.969 77.7648 284.398 74.0348 278.462 74.8948C272.526 75.7548 268.467 80.8748 269.403 86.3298C270.339 91.7848 275.91 95.5148 281.846 94.6548Z"
    fill="#61CD80" />
  <path
    d="M320.481 76.7948L318.756 66.7298C316.384 64.0998 312.613 62.6498 308.674 63.2198C302.739 64.0798 298.68 69.1998 299.616 74.6548C300.551 80.1098 306.123 83.8398 312.058 82.9798C315.998 82.4098 319.104 79.9648 320.481 76.7948Z"
    fill="#61CD80" />
  <path
    d="M321.857 84.8447C321.27 84.9447 320.677 85.1047 320.094 85.3297L280.399 100.67C275.665 102.5 273.886 107.595 276.095 111.5L315.415 105.815C320.823 105.035 324.518 100.37 323.664 95.4047L321.857 84.8447Z"
    fill="#61CD80" />
  <path
    d="M172.77 43.9448C171.508 44.1298 170.703 44.9998 170.681 46.1648L169.19 46.3798L169.326 47.1898L170.784 46.9798C171.127 48.2498 172.226 48.9448 173.641 48.7398C174.8 48.5698 175.502 47.9898 175.692 47.0448L174.501 47.0748C174.392 47.4798 174.06 47.7248 173.516 47.8048C172.749 47.9148 172.205 47.5448 172.052 46.7998L175.605 46.2848C175.48 44.6448 174.365 43.7148 172.776 43.9448H172.77ZM172.95 44.8048C173.63 44.7048 174.131 45.0398 174.288 45.6398L171.927 45.9798C171.894 45.3198 172.292 44.8948 172.944 44.8048H172.95Z"
    fill="white" />
  <path
    d="M178.951 46.9596C178.32 47.0496 178.037 46.8097 177.906 46.0247L177.607 44.2846L178.918 44.0947L178.761 43.1646L177.449 43.3546L177.264 42.2646L176.024 42.7096L176.165 43.5396L175.485 43.6396L175.643 44.5696L176.323 44.4697L176.639 46.3196C176.878 47.7246 177.591 48.1447 178.897 47.9547C179.147 47.9197 179.473 47.8396 179.658 47.7596L179.332 46.8546C179.158 46.9046 179.054 46.9346 178.951 46.9496V46.9596Z"
    fill="white" />
  <path
    d="M182.286 42.5701C181.481 42.6851 181.051 43.1401 180.942 43.6151L180.556 41.3701L179.332 41.8551L180.328 47.6801L181.606 47.4951L181.203 45.1351C181.051 44.2451 181.307 43.7801 182.014 43.6751C182.727 43.5701 183.119 43.8801 183.266 44.7601L183.684 47.1951L184.963 47.0101L184.528 44.4651C184.256 42.8901 183.483 42.3951 182.292 42.5701H182.286Z"
    fill="white" />
  <path
    d="M187.46 41.8199C186.198 41.9999 185.099 42.9149 185.387 44.5799C185.676 46.2599 187.025 46.8199 188.287 46.6349C189.55 46.4549 190.638 45.5399 190.349 43.8599C190.066 42.1949 188.712 41.6349 187.46 41.8199ZM188.108 45.6099C187.395 45.7149 186.802 45.2749 186.65 44.3949C186.497 43.5149 186.916 42.9399 187.624 42.8399C188.331 42.7399 188.929 43.1799 189.076 44.0449C189.223 44.9099 188.821 45.5049 188.102 45.6099H188.108Z"
    fill="white" />
  <path
    d="M192.118 42.5297C192.063 42.2247 192.346 41.9997 192.874 41.9247C193.304 41.8647 193.706 41.9947 193.902 42.2897L195.012 41.9297C194.653 41.2447 193.685 40.9297 192.694 41.0697C191.503 41.2447 190.741 41.9147 190.866 42.7497C191.165 44.6047 194.071 43.4147 194.229 44.3347C194.283 44.6597 193.989 44.8897 193.418 44.9747C192.874 45.0547 192.422 44.9047 192.183 44.5647L191.057 44.9197C191.421 45.6397 192.362 46.0247 193.559 45.8497C194.903 45.6547 195.654 44.9597 195.496 44.0397C195.181 42.1897 192.281 43.4547 192.123 42.5297H192.118Z"
    fill="white" />
  <path
    d="M163.319 45.15C164.429 44.9895 165.181 43.9948 164.998 42.9282C164.816 41.8616 163.768 41.127 162.658 41.2875C161.547 41.448 160.795 42.4428 160.978 43.5094C161.161 44.576 162.209 45.3105 163.319 45.15Z"
    fill="#61CD80" />
  <path
    d="M164.74 45.1196C165.774 44.7096 166.938 45.4296 166.971 46.5096C167.041 48.7796 165.681 50.9396 163.38 51.8596C161.078 52.7746 158.494 52.1796 156.829 50.5496C156.035 49.7746 156.307 48.4846 157.34 48.0696L164.745 45.1196H164.74Z"
    fill="#61CD80" />
  <path
    d="M157.678 47.3873C158.788 47.2268 159.54 46.2321 159.357 45.1655C159.175 44.0989 158.127 43.3643 157.017 43.5248C155.906 43.6853 155.155 44.6801 155.337 45.7467C155.52 46.8133 156.568 47.5478 157.678 47.3873Z"
    fill="#61CD80" />
  <path
    d="M196.563 42.8348C196.329 41.4598 197.156 40.3298 198.549 40.1298C199.631 39.9748 200.464 40.3348 201.013 41.1748L200.611 41.3648C200.148 40.6898 199.479 40.4098 198.625 40.5348C197.493 40.6998 196.835 41.6148 197.031 42.7698C197.226 43.9248 198.162 44.6098 199.294 44.4448C200.132 44.3248 200.708 43.8498 200.91 43.0948L201.356 43.1598C201.133 44.0898 200.42 44.6948 199.359 44.8498C197.966 45.0498 196.802 44.2098 196.568 42.8348H196.563Z"
    fill="white" />
  <path
    d="M201.846 39.7396L202.314 39.6696L202.466 40.5446C202.591 39.9296 203.032 39.3896 204.158 39.4046V39.8346C202.841 39.8046 202.477 40.6096 202.678 41.7946L203.092 44.2196L202.624 44.2896L201.846 39.7396Z"
    fill="white" />
  <path
    d="M204.593 41.6751C204.354 40.2751 205.186 39.1701 206.628 38.9601C208.124 38.7451 209.234 39.5601 209.392 41.0151L205.067 41.6401C205.279 42.8301 206.182 43.4501 207.422 43.2701C208.277 43.1451 208.783 42.7551 209.038 42.1301L209.495 42.1951C209.191 43.0051 208.554 43.5201 207.499 43.6751C205.991 43.8951 204.843 43.0951 204.604 41.6751H204.593ZM208.859 40.6901C208.641 39.7201 207.814 39.1951 206.699 39.3551C205.632 39.5101 204.99 40.2401 205.028 41.2451L208.864 40.6901H208.859ZM206.802 37.0651L207.286 36.9951L206.742 38.4251L206.291 38.4901L206.802 37.0651Z"
    fill="white" />
  <path
    d="M210.246 40.8604C209.969 39.2404 211.002 38.3304 212.21 38.1554C213.102 38.0254 213.968 38.3104 214.435 39.1204L213.984 36.4704L214.452 36.4004L215.48 42.4204L215.012 42.4904L214.816 41.3554C214.642 42.2454 213.924 42.7654 213.037 42.8904C211.808 43.0704 210.524 42.4954 210.241 40.8554L210.246 40.8604ZM214.631 40.2254C214.425 39.0254 213.516 38.3804 212.33 38.5554C211.144 38.7304 210.502 39.5854 210.709 40.7954C210.921 42.0204 211.818 42.6554 213.021 42.4804C214.223 42.3054 214.838 41.4454 214.631 40.2254Z"
    fill="white" />
  <path
    d="M215.763 36.6951C215.736 36.5301 215.85 36.3901 216.024 36.3651C216.198 36.3401 216.367 36.4401 216.394 36.6051C216.421 36.7701 216.296 36.9151 216.122 36.9401C215.948 36.9651 215.79 36.8601 215.763 36.7001V36.6951ZM216.013 37.6951L216.47 37.6301L217.248 42.1801L216.791 42.2451L216.013 37.6951Z"
    fill="white" />
  <path
    d="M218.451 40.0799L218.059 37.7799L217.308 37.8899L217.243 37.5149L217.994 37.4049L217.847 36.5449L218.304 36.3799L218.467 37.3349L220.078 37.0999L220.143 37.4749L218.532 37.7099L218.924 39.9849C219.131 41.1799 219.495 41.5249 220.399 41.3949C220.491 41.3799 220.594 41.3599 220.79 41.2999L220.932 41.6649C220.758 41.7249 220.556 41.7599 220.437 41.7749C219.261 41.9449 218.696 41.4899 218.451 40.0799Z"
    fill="white" />
  <path
    d="M220.839 39.3252C220.556 37.6852 221.628 36.7902 222.858 36.6152C224.076 36.4402 225.415 36.9852 225.692 38.6252C225.97 40.2652 224.898 41.1752 223.674 41.3552C222.439 41.5352 221.117 40.9852 220.834 39.3302L220.839 39.3252ZM225.224 38.6902C225.018 37.4902 224.104 36.8452 222.923 37.0202C221.737 37.1902 221.095 38.0502 221.302 39.2602C221.514 40.4852 222.412 41.1202 223.603 40.9502C224.795 40.7802 225.431 39.9102 225.219 38.6952L225.224 38.6902Z"
    fill="white" />
  <path
    d="M167.874 68.5054C167.64 68.5054 167.433 68.3504 167.395 68.1254C167.351 67.8804 167.536 67.6504 167.798 67.6154L174.185 66.6904C174.452 66.6504 174.702 66.8204 174.74 67.0604C174.783 67.3054 174.598 67.5354 174.337 67.5704L167.95 68.4954C167.95 68.4954 167.901 68.5004 167.874 68.5004V68.5054Z"
    fill="#191C58" />
  <path
    d="M180.567 61.4805C180.333 61.4805 180.126 61.3254 180.088 61.1004C180.045 60.8554 180.23 60.6255 180.491 60.5905L186.421 59.7305C186.688 59.6905 186.938 59.8604 186.976 60.1004C187.02 60.3454 186.835 60.5755 186.574 60.6105L180.643 61.4705C180.643 61.4705 180.594 61.4754 180.567 61.4754V61.4805Z"
    fill="#191C58" />
  <path
    d="M181.677 66.5101C181.443 66.5101 181.236 66.3551 181.198 66.1301C181.155 65.8851 181.34 65.6551 181.601 65.6201L187.373 64.7851C187.64 64.7451 187.89 64.9151 187.928 65.1551C187.966 65.3951 187.787 65.6301 187.526 65.6651L181.753 66.5001C181.753 66.5001 181.704 66.5051 181.677 66.5051V66.5101Z"
    fill="#191C58" />
</svg>
  