<svg width="95" height="94" viewBox="0 0 95 94" fill="none" xmlns="http://www.w3.org/2000/svg">
<path d="M47.5 82.25C42.8709 82.25 38.2871 81.3382 34.0104 79.5668C29.7337 77.7953 25.8477 75.1988 22.5745 71.9255C19.3012 68.6522 16.7047 64.7663 14.9332 60.4896C13.1618 56.2129 12.25 51.6291 12.25 47C12.25 42.3709 13.1618 37.7871 14.9332 33.5104C16.7047 29.2337 19.3012 25.3477 22.5745 22.0745C25.8478 18.8012 29.7337 16.2047 34.0104 14.4332C38.2871 12.6618 42.8709 11.75 47.5 11.75C52.1291 11.75 56.7129 12.6618 60.9896 14.4332C65.2663 16.2047 69.1523 18.8012 72.4255 22.0745C75.6988 25.3478 78.2953 29.2337 80.0668 33.5104C81.8382 37.7871 82.75 42.3709 82.75 47C82.75 51.6291 81.8382 56.2129 80.0667 60.4896C78.2953 64.7663 75.6988 68.6523 72.4255 71.9255C69.1522 75.1988 65.2663 77.7953 60.9896 79.5668C56.7129 81.3382 52.1291 82.25 47.5 82.25L47.5 82.25Z" stroke="#F55850" stroke-width="5" stroke-linecap="round"/>
<path d="M35.75 35.25L59.25 58.75" stroke="#F55850" stroke-width="5" stroke-linecap="round"/>
<path d="M59.25 35.25L35.75 58.75" stroke="#F55850" stroke-width="5" stroke-linecap="round"/>
</svg>
