<svg width="325" height="194" viewBox="0 0 325 194" fill="none" xmlns="http://www.w3.org/2000/svg">
  <rect width="323.533" height="194" rx="10" fill="#191B59" />
  <rect width="323.533" height="194" rx="10" fill="#191B59" />
  <path
    d="M74.4019 85.6862L74.3989 85.6901L74.396 85.6941C74.233 85.9153 73.8679 85.9803 73.5824 85.787C73.3538 85.6323 73.2851 85.2876 73.4797 85.0152C73.7701 84.6604 73.9811 84.2457 74.1196 83.8403C74.2638 83.4182 74.3309 82.9386 74.3283 82.4682C74.3257 81.9978 74.2533 81.5189 74.1044 81.0983C73.9614 80.6944 73.7459 80.2818 73.4516 79.9301C73.254 79.6596 73.3189 79.3143 73.5457 79.1572C73.8291 78.9611 74.1949 79.0223 74.3603 79.2418L74.3633 79.2457L74.3663 79.2496C74.7326 79.7125 75.0331 80.2268 75.2126 80.7314C75.4016 81.325 75.522 81.8992 75.5251 82.4621C75.5284 83.0543 75.4693 83.6149 75.2425 84.1668C74.9955 84.7678 74.7563 85.2284 74.4019 85.6862Z"
    fill="white" />
  <path
    d="M77.0505 86.7855L77.0577 86.7758L77.0643 86.7657C77.8762 85.519 78.3446 84.0148 78.3359 82.4476C78.3272 80.8809 77.8425 79.3819 77.0172 78.1438C76.8384 77.872 76.9187 77.5506 77.2202 77.3419C77.4227 77.2018 77.8028 77.2514 78.0283 77.541C78.9601 78.9578 79.5229 80.6706 79.5327 82.4415C79.5428 84.2729 78.9994 85.9301 78.0825 87.3573C77.8704 87.6371 77.5457 87.7155 77.2657 87.5569C76.9621 87.3438 76.9066 86.9807 77.0505 86.7855Z"
    fill="white" />
  <path
    d="M81.8038 75.6786L81.8118 75.6938L81.821 75.7082C83.0836 77.681 83.7853 79.9566 83.7989 82.4196C83.8125 84.8816 83.1367 87.1632 81.8971 89.1482C81.707 89.4411 81.3862 89.5236 81.0609 89.3786C80.7649 89.1937 80.6853 88.8873 80.84 88.5778C81.8943 86.7836 82.5498 84.6693 82.5374 82.4261C82.5251 80.1929 81.9158 78.082 80.7698 76.2877C80.6147 75.9814 80.6915 75.6762 80.9841 75.4892C81.337 75.3276 81.6808 75.4461 81.8038 75.6786Z"
    fill="white" />
  <path
    d="M85.5425 73.801L85.548 73.8114L85.554 73.8214C87.0841 76.3561 87.983 79.2539 88.0004 82.3981C88.0178 85.539 87.1528 88.4432 85.6537 90.9915C85.4633 91.281 85.1439 91.3621 84.8202 91.2177C84.5251 91.0334 84.4452 90.7283 84.5978 90.4198C86.042 88.0579 86.8197 85.3214 86.8036 82.4042C86.7874 79.4795 85.911 76.7537 84.5111 74.4151C84.3357 74.0737 84.4593 73.7394 84.7041 73.6205C85.0636 73.4459 85.4174 73.5644 85.5425 73.801Z"
    fill="white" />
  <line x1="186.666" y1="55.2871" x2="187.999" y2="55.2871" stroke="#191B59" />
  <g clip-path="url(#clip0_4564_16910)">
    <path
      d="M278.226 17.1195C278.185 20.1592 281.085 21.8555 283.27 22.864C285.515 23.8989 286.269 24.5625 286.261 25.4878C286.243 26.9041 284.47 27.5291 282.81 27.5534C279.914 27.5961 278.23 26.8128 276.891 26.2203L275.848 30.8447C277.191 31.4312 279.678 31.9425 282.257 31.9648C288.31 31.9648 292.271 29.1342 292.292 24.7451C292.316 19.175 284.159 18.8666 284.215 16.3768C284.234 15.622 284.995 14.8164 286.661 14.6114C287.486 14.5079 289.763 14.4288 292.344 15.555L293.357 11.0807C291.969 10.6018 290.185 10.1432 287.963 10.1432C282.266 10.1432 278.258 13.0124 278.226 17.1195ZM303.093 10.5287C301.987 10.5287 301.055 11.1395 300.64 12.077L291.993 31.6361H298.042L299.245 28.4848H306.638L307.336 31.6361H312.667L308.015 10.5287H303.093ZM303.939 16.2307L305.684 24.1566H300.903L303.939 16.2307ZM270.892 10.5287L266.124 31.6361H271.888L276.654 10.5287H270.892ZM262.364 10.5287L256.364 24.8952L253.938 12.6797C253.653 11.3161 252.528 10.5287 251.279 10.5287H241.471L241.334 11.1416C243.347 11.5555 245.635 12.2231 247.021 12.9374C247.869 13.3736 248.111 13.7551 248.39 14.792L252.987 31.6361H259.078L268.418 10.5287H262.364Z"
      fill="white" />
  </g>
  <path fill-rule="evenodd" clip-rule="evenodd"
    d="M324.001 132.66C322.369 125.678 315.731 120.451 307.79 120.451C298.624 120.451 291.194 127.413 291.194 136.002C291.194 144.59 298.624 151.553 307.79 151.553C315.731 151.553 322.369 146.326 324.001 139.343V132.66ZM324.001 152.746C322.483 152.573 320.894 152.651 319.289 153.022L255.542 167.766C246.644 169.826 242.688 179.648 248.002 186.648C250.048 189.344 252.39 191.801 254.974 193.988H314.001C319.524 193.988 324.001 189.511 324.001 183.988V152.746ZM259.263 162.775C268.429 162.775 275.859 155.813 275.859 147.225C275.859 138.636 268.429 131.674 259.263 131.674C250.098 131.674 242.668 138.636 242.668 147.225C242.668 155.813 250.098 162.775 259.263 162.775Z"
    fill="#61CE80" />
  <path
    d="M48.3507 18.4805C45.7915 18.4805 43.9164 20.0115 43.4709 22.3476H40.4492V24.0194H43.397C43.6398 26.6848 45.5782 28.4081 48.4373 28.4081C50.7833 28.4081 52.3648 27.4384 53.0616 25.5841L50.6988 25.3005C50.3419 26.0859 49.6113 26.4865 48.507 26.4865C46.9592 26.4865 46.009 25.5841 45.9562 24.0293H53.1461C53.4523 20.6877 51.5645 18.4805 48.3528 18.4805H48.3507ZM48.4183 20.2693C49.7908 20.2693 50.6734 21.0844 50.779 22.3476H46.0048C46.161 21.0011 47.0943 20.2693 48.4162 20.2693H48.4183Z"
    fill="white" />
  <path
    d="M59.5373 26.3696C58.2619 26.3696 57.7868 25.8004 57.7868 24.1802V20.5867H60.4389V18.665H57.7868V16.4082L55.1853 16.9437V18.665H53.8086V20.5867H55.1853V24.4142C55.1853 27.3215 56.4438 28.3746 59.096 28.3746C59.607 28.3746 60.2679 28.3071 60.6606 28.208L60.3207 26.2863C59.9638 26.3359 59.7421 26.3696 59.5394 26.3696H59.5373Z"
    fill="white" />
  <path
    d="M67.6111 18.4818C65.9789 18.4818 64.9759 19.2671 64.6021 20.2032V15.5566L62.0176 16.1794V28.225H64.6021V23.3445C64.6021 21.5061 65.2652 20.6375 66.6926 20.6375C68.12 20.6375 68.7999 21.3732 68.7999 23.1938V28.225H71.3845V22.9598C71.3845 19.7014 70.0247 18.4798 67.6111 18.4798V18.4818Z"
    fill="white" />
  <path
    d="M78.0827 18.4805C75.5319 18.4805 73.0508 20.0015 73.0508 23.4443C73.0508 26.8871 75.5319 28.4419 78.0827 28.4419C80.6334 28.4419 83.0976 26.9208 83.0976 23.4443C83.0976 19.9678 80.6165 18.4805 78.0827 18.4805ZM78.0827 26.3179C76.6383 26.3179 75.6185 25.2648 75.6185 23.4443C75.6185 21.6238 76.6383 20.5866 78.0658 20.5866C79.4932 20.5866 80.53 21.6555 80.53 23.4443C80.53 25.2331 79.527 26.3179 78.0827 26.3179Z"
    fill="white" />
  <path
    d="M87.0422 21.2725C87.0422 20.6379 87.6715 20.269 88.7421 20.269C89.6099 20.269 90.3574 20.6538 90.6467 21.3042L92.9589 20.9036C92.4838 19.4163 90.6805 18.4961 88.6745 18.4961C86.261 18.4961 84.5274 19.6324 84.4936 21.3538C84.4598 25.1813 90.596 23.6265 90.596 25.5323C90.596 26.2007 89.933 26.5854 88.778 26.5854C87.6229 26.5854 86.8395 26.1511 86.4827 25.3995L84.1367 25.7842C84.6118 27.339 86.3475 28.392 88.7611 28.392C91.4808 28.392 93.1975 27.2061 93.1975 25.3003C93.1975 21.4728 87.0444 23.1783 87.0444 21.2725H87.0422Z"
    fill="white" />
  <path
    d="M29.2855 18.1347C31.5304 18.1347 33.3503 16.3456 33.3503 14.1386C33.3503 11.9317 31.5304 10.1426 29.2855 10.1426C27.0406 10.1426 25.2207 11.9317 25.2207 14.1386C25.2207 16.3456 27.0406 18.1347 29.2855 18.1347Z"
    fill="#61CE80" />
  <path
    d="M32.1023 18.5116C34.2814 17.9821 36.3339 19.7749 36.034 21.9623C35.4027 26.5592 31.9904 30.5315 27.1316 31.7095C22.2729 32.8895 17.3741 30.9341 14.6396 27.1522C13.3388 25.3555 14.3081 22.8309 16.4872 22.3014L32.1023 18.5116Z"
    fill="#61CE80" />
  <path
    d="M17.3968 21.0175C19.6417 21.0175 21.4616 19.2284 21.4616 17.0215C21.4616 14.8145 19.6417 13.0254 17.3968 13.0254C15.1519 13.0254 13.332 14.8145 13.332 17.0215C13.332 19.2284 15.1519 21.0175 17.3968 21.0175Z"
    fill="#61CE80" />
  <path
    d="M95.7148 23.1872C95.7148 20.3414 97.7293 18.3027 100.548 18.3027C102.738 18.3027 104.26 19.2725 105.067 21.1307L104.21 21.3945C103.528 19.8972 102.301 19.1416 100.567 19.1416C98.2741 19.1416 96.6629 20.8035 96.6629 23.1872C96.6629 25.571 98.2741 27.2329 100.567 27.2329C102.265 27.2329 103.561 26.4436 104.21 24.98L105.067 25.2438C104.313 27.0524 102.702 28.0737 100.548 28.0737C97.7293 28.0737 95.7148 26.0351 95.7148 23.1892V23.1872Z"
    fill="white" />
  <path
    d="M107.186 18.4833H108.132V20.2919C108.588 19.0921 109.637 18.1204 111.863 18.4833L111.723 19.3539C109.132 18.9097 108.134 20.4228 108.134 22.874V27.8894H107.188V18.4813L107.186 18.4833Z"
    fill="white" />
  <path
    d="M111.967 23.1876C111.967 20.2922 113.981 18.3031 116.906 18.3031C119.83 18.3031 121.845 20.2764 121.669 23.2531H112.913C112.93 25.7201 114.507 27.2333 117.011 27.2333C118.745 27.2333 119.866 26.5927 120.584 25.4068L121.46 25.6705C120.584 27.2174 119.148 28.0721 117.011 28.0721C113.964 28.0721 111.969 26.1306 111.969 23.1876H111.967ZM120.723 22.4479C120.618 20.4251 119.165 19.1261 116.906 19.1261C114.646 19.1261 113.227 20.4092 112.966 22.4479H120.723ZM117.888 14.5371H118.867L117.309 17.2679H116.399L117.888 14.5371Z"
    fill="white" />
  <path
    d="M123.402 23.1879C123.402 19.8324 125.748 18.3034 128.2 18.3034C130.003 18.3034 131.614 19.1264 132.262 20.9013V15.4238H133.208V27.8741H132.262V25.5221C131.614 27.2653 130.02 28.1041 128.236 28.1041C125.748 28.1041 123.402 26.5751 123.402 23.1859V23.1879ZM132.281 23.1879C132.281 20.705 130.706 19.1422 128.305 19.1422C125.905 19.1422 124.348 20.6891 124.348 23.1879C124.348 25.6867 125.907 27.2672 128.341 27.2672C130.776 27.2672 132.281 25.7045 132.281 23.1879Z"
    fill="white" />
  <path
    d="M135.697 16.3957C135.697 16.0506 135.978 15.8047 136.329 15.8047C136.679 15.8047 136.977 16.0506 136.977 16.3957C136.977 16.7407 136.679 16.9886 136.329 16.9886C135.978 16.9886 135.697 16.7249 135.697 16.3957ZM135.856 18.4839H136.783V27.892H135.856V18.4839Z"
    fill="white" />
  <path
    d="M139.864 24.0101V19.2565H138.34V18.483H139.864V16.7061L140.827 16.5078V18.4811H144.085V19.2545H140.827V23.9585C140.827 26.4256 141.44 27.2307 143.262 27.2307C143.454 27.2307 143.665 27.2149 144.066 27.1474L144.225 27.9209C143.857 27.9863 143.454 28.0042 143.209 28.0042C140.827 28.0042 139.864 26.9194 139.864 24.0081V24.0101Z"
    fill="white" />
  <path
    d="M144.838 23.1872C144.838 19.8 147.256 18.3027 149.741 18.3027C152.226 18.3027 154.661 19.8 154.661 23.1872C154.661 26.5745 152.226 28.1055 149.758 28.1055C147.289 28.1055 144.838 26.6082 144.838 23.1872ZM153.717 23.1872C153.717 20.7043 152.123 19.1416 149.741 19.1416C147.359 19.1416 145.784 20.6885 145.784 23.1872C145.784 25.686 147.342 27.2666 149.76 27.2666C152.178 27.2666 153.717 25.7039 153.717 23.1872Z"
    fill="white" />
  <rect x="38.916" y="72.3105" width="29.7267" height="21.3995" rx="3.75"
    fill="url(#paint0_linear_4564_16910)" stroke="#6D7280" stroke-width="0.5" />
  <path
    d="M39.1387 78.7969H47.0568C48.1614 78.7969 49.0568 79.6923 49.0568 80.7969V84.0739M49.0568 93.5277V89.351M49.0568 89.351V84.0739M49.0568 89.351H39.1387M49.0568 84.0739H39.1387"
    stroke="black" stroke-opacity="0.76" stroke-width="0.5" />
  <path
    d="M68.4199 78.7973H58.9741M58.9741 78.7973V84.0744M58.9741 78.7973V72.5098M58.9741 93.5281V89.3514M58.9741 89.3514V84.0744M58.9741 89.3514H68.4199M58.9741 84.0744H68.4199"
    stroke="black" stroke-opacity="0.76" stroke-width="0.5" />
  <defs>
    <linearGradient id="paint0_linear_4564_16910" x1="38.666" y1="72.0605" x2="67.7543" y2="95.4808"
      gradientUnits="userSpaceOnUse">
      <stop stop-color="white" />
      <stop offset="0.234375" stop-color="#969696" />
      <stop offset="0.583333" stop-color="#EFEFEF" />
      <stop offset="0.765625" stop-color="#636363" />
      <stop offset="1" stop-color="#E5E5E5" />
    </linearGradient>
    <clipPath id="clip0_4564_16910">
      <rect width="71.3333" height="21.9092" fill="white" transform="translate(241.334 10.1426)" />
    </clipPath>
  </defs>
</svg>
  