<svg width="324" height="194" viewBox="0 0 324 194" fill="none" xmlns="http://www.w3.org/2000/svg">
  <rect width="323.533" height="194" rx="10" fill="#191B59" />
  <rect width="323.533" height="194" rx="10" fill="#191B59" />
  <path
    d="M74.4019 85.6872L74.3989 85.6911L74.396 85.6951C74.233 85.9162 73.8679 85.9812 73.5824 85.788C73.3538 85.6333 73.2851 85.2886 73.4797 85.0162C73.7701 84.6614 73.9811 84.2467 74.1196 83.8413C74.2638 83.4192 74.3309 82.9396 74.3283 82.4692C74.3257 81.9988 74.2533 81.5199 74.1044 81.0993C73.9614 80.6953 73.7459 80.2828 73.4516 79.931C73.254 79.6606 73.3189 79.3152 73.5457 79.1582C73.8291 78.962 74.1949 79.0233 74.3603 79.2428L74.3633 79.2467L74.3663 79.2506C74.7326 79.7135 75.0331 80.2278 75.2126 80.7324C75.4016 81.326 75.522 81.9002 75.5251 82.463C75.5284 83.0553 75.4693 83.6159 75.2425 84.1678C74.9955 84.7688 74.7563 85.2294 74.4019 85.6872Z"
    fill="white" />
  <path
    d="M77.0505 86.7865L77.0577 86.7767L77.0643 86.7667C77.8762 85.52 78.3446 84.0157 78.3359 82.4486C78.3272 80.8819 77.8425 79.3829 77.0172 78.1448C76.8384 77.873 76.9187 77.5516 77.2202 77.3429C77.4227 77.2027 77.8028 77.2523 78.0283 77.542C78.9601 78.9588 79.5229 80.6715 79.5327 82.4425C79.5428 84.2739 78.9994 85.9311 78.0825 87.3583C77.8704 87.638 77.5457 87.7164 77.2657 87.5579C76.9621 87.3447 76.9066 86.9817 77.0505 86.7865Z"
    fill="white" />
  <path
    d="M81.8038 75.6796L81.8118 75.6947L81.821 75.7092C83.0836 77.682 83.7853 79.9575 83.7989 82.4206C83.8125 84.8826 83.1367 87.1642 81.8971 89.1492C81.707 89.442 81.3862 89.5246 81.0609 89.3795C80.7649 89.1946 80.6853 88.8882 80.84 88.5788C81.8943 86.7846 82.5498 84.6703 82.5374 82.4271C82.5251 80.1939 81.9158 78.083 80.7698 76.2887C80.6147 75.9823 80.6915 75.6772 80.9841 75.4902C81.337 75.3286 81.6808 75.447 81.8038 75.6796Z"
    fill="white" />
  <path
    d="M85.5425 73.802L85.548 73.8124L85.554 73.8224C87.0841 76.357 87.983 79.2549 88.0004 82.3991C88.0178 85.54 87.1528 88.4442 85.6537 90.9925C85.4633 91.2819 85.1439 91.363 84.8202 91.2186C84.5251 91.0343 84.4452 90.7293 84.5978 90.4208C86.042 88.0589 86.8197 85.3224 86.8036 82.4052C86.7874 79.4805 85.911 76.7547 84.5111 74.4161C84.3357 74.0747 84.4593 73.7403 84.7041 73.6214C85.0636 73.4469 85.4174 73.5654 85.5425 73.802Z"
    fill="white" />
  <line x1="186.666" y1="55.2871" x2="187.999" y2="55.2871" stroke="#191B59" />
  <g clip-path="url(#clip0_4904_15835)">
    <path
      d="M278.226 17.1195C278.185 20.1592 281.085 21.8555 283.27 22.864C285.515 23.8989 286.269 24.5625 286.261 25.4878C286.243 26.9041 284.47 27.5291 282.81 27.5534C279.914 27.5961 278.23 26.8128 276.891 26.2203L275.848 30.8447C277.191 31.4312 279.678 31.9425 282.257 31.9648C288.31 31.9648 292.271 29.1342 292.292 24.7451C292.316 19.175 284.159 18.8666 284.215 16.3768C284.234 15.622 284.995 14.8164 286.661 14.6114C287.486 14.5079 289.763 14.4288 292.344 15.555L293.357 11.0807C291.969 10.6018 290.185 10.1432 287.963 10.1432C282.266 10.1432 278.258 13.0124 278.226 17.1195ZM303.093 10.5287C301.987 10.5287 301.055 11.1395 300.64 12.077L291.993 31.6361H298.042L299.245 28.4848H306.638L307.336 31.6361H312.667L308.015 10.5287H303.093ZM303.939 16.2307L305.684 24.1566H300.903L303.939 16.2307ZM270.892 10.5287L266.124 31.6361H271.888L276.654 10.5287H270.892ZM262.364 10.5287L256.364 24.8952L253.938 12.6797C253.653 11.3161 252.528 10.5287 251.279 10.5287H241.471L241.334 11.1416C243.347 11.5555 245.635 12.2231 247.021 12.9374C247.869 13.3736 248.111 13.7551 248.39 14.792L252.987 31.6361H259.078L268.418 10.5287H262.364Z"
      fill="white" />
  </g>
  <path fill-rule="evenodd" clip-rule="evenodd"
    d="M324.001 132.659C322.369 125.677 315.731 120.45 307.79 120.45C298.624 120.45 291.194 127.412 291.194 136.001C291.194 144.589 298.624 151.552 307.79 151.552C315.731 151.552 322.369 146.325 324.001 139.342V132.659ZM324.001 152.745C322.483 152.572 320.894 152.65 319.289 153.021L255.542 167.765C246.644 169.825 242.688 179.647 248.002 186.647C250.048 189.343 252.39 191.8 254.974 193.987H314.001C319.524 193.987 324.001 189.51 324.001 183.987V152.745ZM259.263 162.774C268.429 162.774 275.859 155.812 275.859 147.224C275.859 138.635 268.429 131.673 259.263 131.673C250.098 131.673 242.668 138.635 242.668 147.224C242.668 155.812 250.098 162.774 259.263 162.774Z"
    fill="#61CE80" />
  <path
    d="M48.3507 18.4824C45.7915 18.4824 43.9164 20.0134 43.4709 22.3496H40.4492V24.0214H43.397C43.6398 26.6867 45.5782 28.4101 48.4373 28.4101C50.7833 28.4101 52.3648 27.4403 53.0616 25.5861L50.6988 25.3025C50.3419 26.0878 49.6113 26.4884 48.507 26.4884C46.9592 26.4884 46.009 25.5861 45.9562 24.0313H53.1461C53.4523 20.6897 51.5645 18.4824 48.3528 18.4824H48.3507ZM48.4183 20.2712C49.7908 20.2712 50.6734 21.0863 50.779 22.3496H46.0048C46.161 21.003 47.0943 20.2712 48.4162 20.2712H48.4183Z"
    fill="white" />
  <path
    d="M59.5373 26.3696C58.2619 26.3696 57.7868 25.8004 57.7868 24.1802V20.5867H60.4389V18.665H57.7868V16.4082L55.1853 16.9437V18.665H53.8086V20.5867H55.1853V24.4142C55.1853 27.3215 56.4438 28.3746 59.096 28.3746C59.607 28.3746 60.2679 28.3071 60.6606 28.208L60.3207 26.2863C59.9638 26.3359 59.7421 26.3696 59.5394 26.3696H59.5373Z"
    fill="white" />
  <path
    d="M67.6111 18.4828C65.9789 18.4828 64.9759 19.2681 64.6021 20.2042V15.5576L62.0176 16.1803V28.226H64.6021V23.3455C64.6021 21.5071 65.2652 20.6385 66.6926 20.6385C68.12 20.6385 68.7999 21.3742 68.7999 23.1948V28.226H71.3845V22.9607C71.3845 19.7024 70.0247 18.4808 67.6111 18.4808V18.4828Z"
    fill="white" />
  <path
    d="M78.0827 18.4824C75.5319 18.4824 73.0508 20.0035 73.0508 23.4463C73.0508 26.889 75.5319 28.4438 78.0827 28.4438C80.6334 28.4438 83.0976 26.9227 83.0976 23.4463C83.0976 19.9698 80.6165 18.4824 78.0827 18.4824ZM78.0827 26.3199C76.6383 26.3199 75.6185 25.2668 75.6185 23.4463C75.6185 21.6257 76.6383 20.5885 78.0658 20.5885C79.4932 20.5885 80.53 21.6575 80.53 23.4463C80.53 25.2351 79.527 26.3199 78.0827 26.3199Z"
    fill="white" />
  <path
    d="M87.0422 21.2735C87.0422 20.6389 87.6715 20.27 88.7421 20.27C89.6099 20.27 90.3574 20.6547 90.6467 21.3052L92.9589 20.9046C92.4838 19.4173 90.6805 18.4971 88.6745 18.4971C86.261 18.4971 84.5274 19.6334 84.4936 21.3548C84.4598 25.1823 90.596 23.6275 90.596 25.5333C90.596 26.2016 89.933 26.5864 88.778 26.5864C87.6229 26.5864 86.8395 26.1521 86.4827 25.4004L84.1367 25.7852C84.6118 27.34 86.3475 28.393 88.7611 28.393C91.4808 28.393 93.1975 27.2071 93.1975 25.3013C93.1975 21.4738 87.0444 23.1793 87.0444 21.2735H87.0422Z"
    fill="white" />
  <path
    d="M29.2855 18.1347C31.5304 18.1347 33.3503 16.3456 33.3503 14.1386C33.3503 11.9317 31.5304 10.1426 29.2855 10.1426C27.0406 10.1426 25.2207 11.9317 25.2207 14.1386C25.2207 16.3456 27.0406 18.1347 29.2855 18.1347Z"
    fill="#61CE80" />
  <path
    d="M32.1023 18.5126C34.2814 17.9831 36.3339 19.7758 36.034 21.9633C35.4027 26.5602 31.9904 30.5325 27.1316 31.7105C22.2729 32.8905 17.3741 30.9351 14.6396 27.1532C13.3388 25.3564 14.3081 22.8319 16.4872 22.3024L32.1023 18.5126Z"
    fill="#61CE80" />
  <path
    d="M17.3968 21.0185C19.6417 21.0185 21.4616 19.2294 21.4616 17.0224C21.4616 14.8155 19.6417 13.0264 17.3968 13.0264C15.1519 13.0264 13.332 14.8155 13.332 17.0224C13.332 19.2294 15.1519 21.0185 17.3968 21.0185Z"
    fill="#61CE80" />
  <path
    d="M95.7148 23.1882C95.7148 20.3424 97.7293 18.3037 100.548 18.3037C102.738 18.3037 104.26 19.2735 105.067 21.1317L104.21 21.3955C103.528 19.8982 102.301 19.1426 100.567 19.1426C98.2741 19.1426 96.6629 20.8045 96.6629 23.1882C96.6629 25.572 98.2741 27.2339 100.567 27.2339C102.265 27.2339 103.561 26.4446 104.21 24.981L105.067 25.2448C104.313 27.0534 102.702 28.0747 100.548 28.0747C97.7293 28.0747 95.7148 26.036 95.7148 23.1902V23.1882Z"
    fill="white" />
  <path
    d="M107.186 18.4833H108.132V20.2919C108.588 19.0921 109.637 18.1204 111.863 18.4833L111.723 19.3539C109.132 18.9097 108.134 20.4228 108.134 22.874V27.8894H107.188V18.4813L107.186 18.4833Z"
    fill="white" />
  <path
    d="M111.967 23.1876C111.967 20.2922 113.981 18.3031 116.906 18.3031C119.83 18.3031 121.845 20.2764 121.669 23.2531H112.913C112.93 25.7201 114.507 27.2333 117.011 27.2333C118.745 27.2333 119.866 26.5927 120.584 25.4068L121.46 25.6705C120.584 27.2174 119.148 28.0721 117.011 28.0721C113.964 28.0721 111.969 26.1306 111.969 23.1876H111.967ZM120.723 22.4479C120.618 20.4251 119.165 19.1261 116.906 19.1261C114.646 19.1261 113.227 20.4092 112.966 22.4479H120.723ZM117.888 14.5371H118.867L117.309 17.2679H116.399L117.888 14.5371Z"
    fill="white" />
  <path
    d="M123.402 23.1879C123.402 19.8324 125.748 18.3034 128.2 18.3034C130.003 18.3034 131.614 19.1264 132.262 20.9013V15.4238H133.208V27.8741H132.262V25.5221C131.614 27.2653 130.02 28.1041 128.236 28.1041C125.748 28.1041 123.402 26.5751 123.402 23.1859V23.1879ZM132.281 23.1879C132.281 20.705 130.706 19.1422 128.305 19.1422C125.905 19.1422 124.348 20.6891 124.348 23.1879C124.348 25.6867 125.907 27.2672 128.341 27.2672C130.776 27.2672 132.281 25.7045 132.281 23.1879Z"
    fill="white" />
  <path
    d="M135.697 16.3947C135.697 16.0496 135.978 15.8037 136.329 15.8037C136.679 15.8037 136.977 16.0496 136.977 16.3947C136.977 16.7398 136.679 16.9877 136.329 16.9877C135.978 16.9877 135.697 16.7239 135.697 16.3947ZM135.856 18.483H136.783V27.891H135.856V18.483Z"
    fill="white" />
  <path
    d="M139.864 24.0101V19.2565H138.34V18.483H139.864V16.7061L140.827 16.5078V18.4811H144.085V19.2545H140.827V23.9585C140.827 26.4256 141.44 27.2307 143.262 27.2307C143.454 27.2307 143.665 27.2149 144.066 27.1474L144.225 27.9209C143.857 27.9863 143.454 28.0042 143.209 28.0042C140.827 28.0042 139.864 26.9194 139.864 24.0081V24.0101Z"
    fill="white" />
  <path
    d="M144.838 23.1882C144.838 19.801 147.256 18.3037 149.741 18.3037C152.226 18.3037 154.661 19.801 154.661 23.1882C154.661 26.5755 152.226 28.1064 149.758 28.1064C147.289 28.1064 144.838 26.6092 144.838 23.1882ZM153.717 23.1882C153.717 20.7053 152.123 19.1426 149.741 19.1426C147.359 19.1426 145.784 20.6894 145.784 23.1882C145.784 25.687 147.342 27.2676 149.76 27.2676C152.178 27.2676 153.717 25.7048 153.717 23.1882Z"
    fill="white" />
  <rect x="38.916" y="72.3086" width="29.7267" height="21.3995" rx="3.75"
    fill="url(#paint0_linear_4904_15835)" stroke="#6D7280" stroke-width="0.5" />
  <path
    d="M39.1387 78.7949H47.0568C48.1614 78.7949 49.0568 79.6904 49.0568 80.7949V84.072M49.0568 93.5258V89.349M49.0568 89.349V84.072M49.0568 89.349H39.1387M49.0568 84.072H39.1387"
    stroke="black" stroke-opacity="0.76" stroke-width="0.5" />
  <path
    d="M68.4199 78.7954H58.9741M58.9741 78.7954V84.0724M58.9741 78.7954V72.5078M58.9741 93.5262V89.3495M58.9741 89.3495V84.0724M58.9741 89.3495H68.4199M58.9741 84.0724H68.4199"
    stroke="black" stroke-opacity="0.76" stroke-width="0.5" />
  <defs>
    <linearGradient id="paint0_linear_4904_15835" x1="38.666" y1="72.0586" x2="67.7543" y2="95.4789"
      gradientUnits="userSpaceOnUse">
      <stop stop-color="white" />
      <stop offset="0.234375" stop-color="#969696" />
      <stop offset="0.583333" stop-color="#EFEFEF" />
      <stop offset="0.765625" stop-color="#636363" />
      <stop offset="1" stop-color="#E5E5E5" />
    </linearGradient>
    <clipPath id="clip0_4904_15835">
      <rect width="71.3333" height="21.9092" fill="white" transform="translate(241.334 10.1436)" />
    </clipPath>
  </defs>
</svg>
  