<svg width="110" height="110" viewBox="0 0 110 110" fill="none" xmlns="http://www.w3.org/2000/svg">
<g id="avatar-4 2">
<path id="Vector" d="M40.9203 40.64C48.7203 48.44 61.3703 48.44 69.1703 40.64C76.9703 32.84 76.9703 20.19 69.1703 12.39C61.3703 4.58998 48.7203 4.58998 40.9203 12.39C33.1203 20.19 33.1203 32.84 40.9203 40.64Z" fill="#B3B3B3"/>
<path id="Vector_2" d="M39.5293 54.46C41.4993 48.96 48.3993 47.13 52.7993 50.98C62.0293 59.08 65.8893 72.29 61.4993 84.55C57.1093 96.81 45.7493 104.58 33.4693 104.98C27.6293 105.17 23.4493 99.37 25.4193 93.87L39.5293 54.46Z" fill="#B3B3B3"/>
<path id="Vector_3" d="M84.7992 94.63C86.4792 100.23 81.9992 105.8 76.1792 105.3C63.9392 104.26 52.9992 95.91 49.2592 83.43C45.5192 70.95 50.0592 57.96 59.7092 50.36C64.2992 46.74 71.0992 48.93 72.7792 54.53L84.7992 94.63Z" fill="#B3B3B3"/>
<path id="Vector_4" d="M41.63 31.78C41.15 31.78 40.67 31.76 40.19 31.72C35.7 31.34 31.62 29.24 28.71 25.79C28.34 25.35 28.39 24.69 28.83 24.31C29.27 23.94 29.93 23.99 30.31 24.43C32.86 27.45 36.43 29.29 40.37 29.62C44.31 29.95 48.14 28.73 51.15 26.18C54.17 23.63 56.01 20.06 56.34 16.12C56.67 12.18 55.45 8.35001 52.9 5.34001C52.53 4.90001 52.58 4.24001 53.02 3.86001C53.46 3.49001 54.12 3.54001 54.5 3.98001C57.41 7.43001 58.81 11.8 58.43 16.29C58.05 20.78 55.95 24.86 52.5 27.77C49.42 30.37 45.61 31.76 41.63 31.76V31.78Z" fill="#191C58"/>
<path id="Vector_5" d="M55.0009 39.25C54.8309 39.25 54.6509 39.25 54.4809 39.25C52.8909 39.2 51.3209 38.89 49.8109 38.35C49.2509 38.15 48.9609 37.53 49.1609 36.96C49.3609 36.39 49.9809 36.11 50.5509 36.31C51.8409 36.78 53.1909 37.04 54.5509 37.09C56.2209 37.15 57.8609 36.89 59.4409 36.31C60.0009 36.11 60.6209 36.4 60.8209 36.96C61.0209 37.52 60.7309 38.14 60.1709 38.34C58.5009 38.95 56.7609 39.25 54.9909 39.25H55.0009Z" fill="#191C58"/>
<path id="Vector_6" d="M75.5008 89.08C75.3008 89.08 75.1008 89.03 74.9208 88.91C74.4208 88.59 74.2708 87.92 74.5908 87.42L87.8708 66.51L70.6308 58.05C70.0908 57.79 69.8708 57.14 70.1408 56.6C70.4008 56.06 71.0508 55.84 71.5908 56.11L91.0008 65.63L76.4208 88.58C76.2108 88.9 75.8608 89.08 75.5108 89.08H75.5008Z" fill="#191C58"/>
</g>
</svg>
