<svg xmlns="http://www.w3.org/2000/svg" width="110" height="110" viewBox="0 0 110 110" fill="none">
  <path d="M74.98 52.62C73.67 51.05 74.33 48.65 76.27 48C80.34 46.64 85.01 47.81 87.94 51.3C90.87 54.79 91.21 59.59 89.16 63.37C88.19 65.17 85.7 65.4 84.39 63.84L74.98 52.63V52.62Z" fill="#61CE80"/>
  <path d="M38.1506 50.3101C48.3306 60.4901 64.8406 60.4901 75.0206 50.3101C85.2006 40.1301 85.2006 23.6201 75.0206 13.4401C64.8406 3.26005 48.3306 3.26005 38.1506 13.4401C27.9706 23.6201 27.9706 40.1301 38.1506 50.3101Z" fill="#61CE80"/>
  <path d="M83.0995 65.76C90.7295 66.3 95.4795 74.36 92.1695 81.26C85.2195 95.76 69.9295 105.29 52.9195 104.09C35.9095 102.89 22.1095 91.31 17.2595 75.98C14.9595 68.68 20.7895 61.37 28.4195 61.91L83.0895 65.77L83.0995 65.76Z" fill="#61CE80"/>
  <path d="M56.1098 80.59C55.3998 80.59 54.6798 80.56 53.9598 80.51C48.7098 80.1 43.8698 78.24 40.3398 75.27C36.7198 72.22 34.8898 68.36 35.1998 64.41C35.2398 63.85 35.7298 63.44 36.2898 63.48C36.8498 63.52 37.2698 64.01 37.2198 64.57C36.9598 67.85 38.5398 71.1 41.6498 73.72C44.8598 76.42 49.2798 78.11 54.1198 78.49C58.9498 78.86 63.5898 77.88 67.1698 75.7C70.6498 73.59 72.6998 70.63 72.9598 67.34C72.9998 66.78 73.4898 66.37 74.0498 66.41C74.6098 66.45 75.0298 66.94 74.9798 67.5C74.6698 71.45 72.2698 74.98 68.2198 77.43C64.8198 79.49 60.5798 80.59 56.1098 80.59Z" fill="#191C58"/>
  <path d="M48.7107 48.52C48.5507 48.52 48.3907 48.52 48.2207 48.52C46.7207 48.47 45.2507 48.18 43.8407 47.67C43.3107 47.48 43.0407 46.9 43.2307 46.37C43.4207 45.84 44.0007 45.57 44.5307 45.76C45.7407 46.2 47.0107 46.44 48.2907 46.49C49.8507 46.54 51.4007 46.3 52.8807 45.76C53.4107 45.57 53.9907 45.84 54.1807 46.37C54.3707 46.9 54.1007 47.48 53.5707 47.67C52.0007 48.24 50.3707 48.53 48.7107 48.53V48.52Z" fill="#191C58"/>
  <path d="M37.3104 41.29C30.4704 41.29 24.9004 35.72 24.9004 28.88C24.9004 22.04 30.4704 16.47 37.3104 16.47C44.1504 16.47 49.7204 22.04 49.7204 28.88C49.7204 35.72 44.1504 41.29 37.3104 41.29ZM37.3104 18.5C31.5904 18.5 26.9304 23.16 26.9304 28.88C26.9304 34.6 31.5904 39.26 37.3104 39.26C43.0304 39.26 47.6904 34.6 47.6904 28.88C47.6904 23.16 43.0304 18.5 37.3104 18.5Z" fill="#191C58"/>
  <path d="M64.1699 48.52C57.8299 48.52 52.6699 43.36 52.6699 37.02C52.6699 30.68 57.8299 25.52 64.1699 25.52C70.5099 25.52 75.6699 30.68 75.6699 37.02C75.6699 43.36 70.5099 48.52 64.1699 48.52ZM64.1699 27.55C58.9499 27.55 54.6999 31.8 54.6999 37.02C54.6999 42.24 58.9499 46.49 64.1699 46.49C69.3899 46.49 73.6399 42.24 73.6399 37.02C73.6399 31.8 69.3899 27.55 64.1699 27.55Z" fill="#191C58"/>
  <path d="M54.1209 35.06C53.9809 35.06 53.8509 35.03 53.7209 34.98L48.3109 32.63C47.8009 32.41 47.5609 31.81 47.7809 31.29C48.0009 30.78 48.6009 30.54 49.1209 30.76L54.5309 33.11C55.0409 33.33 55.2809 33.93 55.0609 34.45C54.8909 34.83 54.5209 35.06 54.1309 35.06H54.1209Z" fill="#191C58"/>
</svg>