<svg width="310" height="187" viewBox="0 0 310 187" fill="none" xmlns="http://www.w3.org/2000/svg">
  <g filter="url(#filter0_d_97_963)">
    <rect x="6" width="297.7" height="174.2" rx="10" fill="#E6E8EC" shape-rendering="crispEdges" />
    <rect x="6.5" y="0.5" width="296.7" height="173.2" rx="9.5" stroke="#3F496B"
      shape-rendering="crispEdges" />
    <rect x="9" y="11" width="84" height="112" rx="10" fill="#E6E8EC" />
    <circle cx="51" cy="57" r="30" fill="#071440" />
    <circle cx="51" cy="47" r="10" fill="white" />
    <path fill-rule="evenodd" clip-rule="evenodd"
      d="M31.0225 79.3811C31.5195 68.7777 40.2737 60.3335 51.0002 60.3335C61.7266 60.3335 70.4808 68.7777 70.9779 79.3811C65.673 84.1197 58.673 87.0002 51.0002 87.0002C43.3274 87.0002 36.3274 84.1197 31.0225 79.3811Z"
      fill="#AEB3C1" />
    <rect x="26.4287" y="99" width="49.1429" height="8" rx="2" fill="#777E96" />
    <rect x="98" y="13" width="49.1429" height="8" rx="2" fill="#3F496B" />
    <rect x="98" y="29" width="70" height="8" rx="2" fill="#3F496B" />
    <rect x="173" y="29" width="46" height="8" rx="2" fill="#3F496B" />
    <rect x="98" y="45" width="55" height="8" rx="2" fill="#3F496B" />
    <rect x="98" y="112" width="13" height="8" rx="2" fill="#777E96" />
    <rect x="114" y="112" width="13" height="8" rx="2" fill="#777E96" />
    <rect x="130" y="112" width="13" height="8" rx="2" fill="#777E96" />
    <rect x="190" y="112" width="29" height="8" rx="2" fill="#071440" />
    <rect x="98" y="67" width="49.1429" height="8" rx="2" fill="#777E96" />
    <rect x="162" y="67" width="57" height="8" rx="2" fill="#071440" />
  </g>
  <defs>
    <filter id="filter0_d_97_963" x="0" y="0" width="309.7" height="186.2"
      filterUnits="userSpaceOnUse" color-interpolation-filters="sRGB">
      <feFlood flood-opacity="0" result="BackgroundImageFix" />
      <feColorMatrix in="SourceAlpha" type="matrix"
        values="0 0 0 0 0 0 0 0 0 0 0 0 0 0 0 0 0 0 127 0" result="hardAlpha" />
      <feOffset dy="6" />
      <feGaussianBlur stdDeviation="3" />
      <feComposite in2="hardAlpha" operator="out" />
      <feColorMatrix type="matrix"
        values="0 0 0 0 0.0224584 0 0 0 0 0.0591492 0 0 0 0 0.183333 0 0 0 0.2 0" />
      <feBlend mode="normal" in2="BackgroundImageFix" result="effect1_dropShadow_97_963" />
      <feBlend mode="normal" in="SourceGraphic" in2="effect1_dropShadow_97_963" result="shape" />
    </filter>
  </defs>
</svg>
  