<svg width="324" height="194" viewBox="0 0 324 194" fill="none" xmlns="http://www.w3.org/2000/svg">
  <g clip-path="url(#clip0_4564_16979)">
    <g clip-path="url(#clip1_4564_16979)">
      <rect width="332" height="210" fill="#191B59" />
      <g clip-path="url(#clip2_4564_16979)">
        <g opacity="0.7">
          <path
            d="M295.667 111.051C291.979 156.782 215.119 179.363 123.995 161.486C32.8706 143.609 -38.0102 92.0449 -34.322 46.3138"
            stroke="url(#paint0_linear_4564_16979)" stroke-width="41" stroke-linecap="round" />
          <path
            d="M26.4107 121.456C26.4107 75.3645 100.863 38.0001 192.705 38C284.547 38 359 75.3645 359 121.456"
            stroke="url(#paint1_linear_4564_16979)" stroke-width="41" stroke-linecap="round" />
        </g>
        <path
          d="M97.0181 28V19.4233H98.1899V21.3276C98.3413 20.6978 98.6562 20.1973 99.1348 19.8262C99.6133 19.4551 100.204 19.2695 100.907 19.2695C101.674 19.2695 102.267 19.4478 102.687 19.8042C103.107 20.1606 103.427 20.7368 103.646 21.5327C103.832 20.7954 104.196 20.2314 104.738 19.8408C105.285 19.4502 105.973 19.2549 106.803 19.2549C107.907 19.2549 108.695 19.6162 109.169 20.3389C109.647 21.0615 109.887 22.2041 109.887 23.7666V28H108.708V23.8472C108.708 22.6118 108.529 21.7158 108.173 21.1592C107.821 20.5977 107.228 20.3169 106.393 20.3169C105.539 20.3169 104.923 20.5977 104.547 21.1592C104.171 21.7207 103.983 22.6167 103.983 23.8472V28H102.812V23.8765C102.812 22.6118 102.65 21.7061 102.328 21.1592C102.006 20.6074 101.437 20.3315 100.622 20.3315C99.7769 20.3315 99.1592 20.6343 98.7686 21.2397C98.3828 21.8403 98.1899 22.7632 98.1899 24.0083V28H97.0181ZM116.975 28.1685C115.657 28.1685 114.602 27.7632 113.811 26.9526C113.02 26.1372 112.625 25.0557 112.625 23.708C112.625 22.3896 113.02 21.3179 113.811 20.4927C114.607 19.6675 115.637 19.2549 116.902 19.2549C118.225 19.2549 119.263 19.687 120.015 20.5513C120.772 21.4106 121.104 22.5386 121.011 23.9351H113.797C113.816 24.9312 114.112 25.7124 114.683 26.2788C115.254 26.8452 116.023 27.1284 116.99 27.1284C118.299 27.1284 119.229 26.6328 119.781 25.6416L120.865 25.8833C120.113 27.4067 118.816 28.1685 116.975 28.1685ZM113.841 22.9463H119.89C119.837 22.1162 119.546 21.4595 119.019 20.9761C118.492 20.4878 117.791 20.2437 116.917 20.2437C116.072 20.2437 115.374 20.4854 114.822 20.9688C114.275 21.4473 113.948 22.1064 113.841 22.9463ZM127.719 28.1978C127.284 28.1978 126.869 28.1392 126.474 28.022C126.083 27.9097 125.714 27.7339 125.368 27.4946C125.026 27.2505 124.728 26.9551 124.474 26.6084C124.225 26.2617 124.027 25.8394 123.881 25.3413C123.739 24.8433 123.669 24.2988 123.669 23.708C123.669 22.9756 123.778 22.3213 123.998 21.7451C124.218 21.1689 124.516 20.7026 124.892 20.3462C125.273 19.9897 125.7 19.7188 126.173 19.5332C126.652 19.3477 127.162 19.2549 127.704 19.2549C128.456 19.2549 129.128 19.4404 129.718 19.8115C130.314 20.1777 130.739 20.7075 130.993 21.4009V16.6328H132.179V27.9854H130.993V26.0664C130.734 26.7549 130.312 27.2822 129.726 27.6484C129.14 28.0146 128.471 28.1978 127.719 28.1978ZM127.946 27.1431C128.879 27.1431 129.623 26.8354 130.18 26.2202C130.741 25.6001 131.022 24.7627 131.022 23.708C131.022 22.6631 130.739 21.8354 130.172 21.2251C129.611 20.6099 128.859 20.3022 127.917 20.3022C126.984 20.3022 126.237 20.6074 125.675 21.2178C125.119 21.8281 124.84 22.6582 124.84 23.708C124.84 24.7676 125.121 25.605 125.683 26.2202C126.249 26.8354 127.004 27.1431 127.946 27.1431ZM138.931 28.1465C138.003 28.1465 137.181 27.9536 136.463 27.5679C135.745 27.1821 135.232 26.6621 134.925 26.0078L135.994 25.6636C136.258 26.1226 136.643 26.4766 137.151 26.7256C137.659 26.9746 138.252 27.0991 138.931 27.0991C139.707 27.0991 140.31 26.9648 140.74 26.6963C141.175 26.4277 141.392 26.0518 141.392 25.5684C141.392 25.3291 141.324 25.1265 141.187 24.9604C141.05 24.7896 140.865 24.6553 140.63 24.5576C140.401 24.46 140.135 24.3794 139.832 24.3159C139.534 24.2476 139.219 24.1865 138.887 24.1328C138.555 24.0742 138.223 24.0132 137.891 23.9497C137.564 23.8862 137.249 23.7983 136.946 23.686C136.648 23.5688 136.382 23.4272 136.148 23.2612C135.918 23.0952 135.735 22.8755 135.599 22.6021C135.462 22.3286 135.393 22.0088 135.393 21.6426C135.393 20.9395 135.716 20.3682 136.36 19.9287C137.01 19.4893 137.832 19.2695 138.829 19.2695C139.585 19.2695 140.288 19.438 140.938 19.7749C141.587 20.1118 142.058 20.5488 142.351 21.0859L141.333 21.4595C141.089 21.0981 140.745 20.8125 140.301 20.6025C139.861 20.3926 139.375 20.2876 138.843 20.2876C138.135 20.2876 137.579 20.4121 137.173 20.6611C136.768 20.9053 136.565 21.2422 136.565 21.6719C136.565 21.9111 136.634 22.1162 136.77 22.2871C136.907 22.4531 137.09 22.585 137.32 22.6826C137.554 22.7754 137.82 22.856 138.118 22.9243C138.421 22.9878 138.738 23.0464 139.07 23.1001C139.407 23.1489 139.742 23.2051 140.074 23.2686C140.406 23.332 140.721 23.4199 141.018 23.5322C141.321 23.6445 141.587 23.7837 141.817 23.9497C142.051 24.1108 142.237 24.3281 142.373 24.6016C142.51 24.875 142.579 25.1924 142.579 25.5537C142.579 26.3398 142.246 26.9697 141.582 27.4434C140.923 27.9121 140.039 28.1465 138.931 28.1465ZM148.986 28.1978C148.551 28.1978 148.136 28.1392 147.741 28.022C147.35 27.9097 146.982 27.7339 146.635 27.4946C146.293 27.2505 145.995 26.9551 145.741 26.6084C145.492 26.2617 145.295 25.8394 145.148 25.3413C145.007 24.8433 144.936 24.2988 144.936 23.708C144.936 22.9756 145.046 22.3213 145.265 21.7451C145.485 21.1689 145.783 20.7026 146.159 20.3462C146.54 19.9897 146.967 19.7188 147.441 19.5332C147.919 19.3477 148.429 19.2549 148.971 19.2549C149.723 19.2549 150.392 19.4404 150.978 19.8115C151.569 20.1777 151.996 20.7075 152.26 21.4009V19.4233H153.446V27.9854H152.26V26.0664C152.001 26.7549 151.579 27.2822 150.993 27.6484C150.407 28.0146 149.738 28.1978 148.986 28.1978ZM149.213 27.1431C150.141 27.1431 150.885 26.833 151.447 26.2129C152.008 25.5928 152.289 24.7578 152.289 23.708C152.289 22.6631 152.006 21.8354 151.44 21.2251C150.873 20.6099 150.121 20.3022 149.184 20.3022C148.251 20.3022 147.504 20.6074 146.943 21.2178C146.386 21.8281 146.108 22.6582 146.108 23.708C146.108 24.7676 146.388 25.605 146.95 26.2202C147.516 26.8354 148.271 27.1431 149.213 27.1431ZM156.792 28V16.6328H157.979V28H156.792ZM164.577 28.1465C162.199 28.1465 161.01 26.772 161.01 24.0229V19.4233H162.175V23.9497C162.175 25.0142 162.389 25.8027 162.819 26.3154C163.249 26.8281 163.925 27.0845 164.848 27.0845C166.616 27.0845 167.499 25.9492 167.499 23.6787V19.4233H168.671V28H167.499V26.1689C167.304 26.7744 166.955 27.2554 166.452 27.6118C165.954 27.9683 165.329 28.1465 164.577 28.1465ZM175.76 28.1978C175.325 28.1978 174.91 28.1392 174.515 28.022C174.124 27.9097 173.755 27.7339 173.409 27.4946C173.067 27.2505 172.769 26.9551 172.515 26.6084C172.266 26.2617 172.068 25.8394 171.922 25.3413C171.78 24.8433 171.71 24.2988 171.71 23.708C171.71 22.9756 171.819 22.3213 172.039 21.7451C172.259 21.1689 172.557 20.7026 172.933 20.3462C173.314 19.9897 173.741 19.7188 174.214 19.5332C174.693 19.3477 175.203 19.2549 175.745 19.2549C176.497 19.2549 177.169 19.4404 177.759 19.8115C178.355 20.1777 178.78 20.7075 179.034 21.4009V16.6328H180.22V27.9854H179.034V26.0664C178.775 26.7549 178.353 27.2822 177.767 27.6484C177.181 28.0146 176.512 28.1978 175.76 28.1978ZM175.987 27.1431C176.92 27.1431 177.664 26.8354 178.221 26.2202C178.782 25.6001 179.063 24.7627 179.063 23.708C179.063 22.6631 178.78 21.8354 178.213 21.2251C177.652 20.6099 176.9 20.3022 175.958 20.3022C175.025 20.3022 174.278 20.6074 173.716 21.2178C173.16 21.8281 172.881 22.6582 172.881 23.708C172.881 24.7676 173.162 25.605 173.724 26.2202C174.29 26.8354 175.045 27.1431 175.987 27.1431Z"
          fill="white" />
      </g>
    </g>
    <g clip-path="url(#clip3_4564_16979)">
      <path
        d="M278.226 17.1195C278.185 20.1592 281.085 21.8555 283.27 22.864C285.515 23.8989 286.269 24.5625 286.261 25.4878C286.243 26.9041 284.47 27.5291 282.81 27.5534C279.914 27.5961 278.23 26.8128 276.891 26.2203L275.848 30.8447C277.191 31.4312 279.678 31.9425 282.257 31.9648C288.31 31.9648 292.271 29.1342 292.292 24.7451C292.316 19.175 284.159 18.8666 284.215 16.3768C284.234 15.622 284.995 14.8164 286.661 14.6114C287.486 14.5079 289.763 14.4288 292.344 15.555L293.357 11.0807C291.969 10.6018 290.185 10.1432 287.963 10.1432C282.266 10.1432 278.258 13.0124 278.226 17.1195ZM303.093 10.5287C301.987 10.5287 301.055 11.1395 300.64 12.077L291.993 31.6361H298.042L299.245 28.4848H306.638L307.336 31.6361H312.667L308.015 10.5287H303.093ZM303.939 16.2307L305.684 24.1566H300.903L303.939 16.2307ZM270.892 10.5287L266.124 31.6361H271.888L276.654 10.5287H270.892ZM262.364 10.5287L256.364 24.8952L253.938 12.6797C253.653 11.3161 252.528 10.5287 251.279 10.5287H241.471L241.334 11.1416C243.347 11.5555 245.635 12.2231 247.021 12.9374C247.869 13.3736 248.111 13.7551 248.39 14.792L252.987 31.6361H259.078L268.418 10.5287H262.364Z"
        fill="white" />
    </g>
    <path
      d="M48.3507 18.4805C45.7915 18.4805 43.9164 20.0115 43.4709 22.3476H40.4492V24.0194H43.397C43.6398 26.6848 45.5782 28.4081 48.4373 28.4081C50.7833 28.4081 52.3648 27.4384 53.0616 25.5841L50.6988 25.3005C50.3419 26.0859 49.6113 26.4865 48.507 26.4865C46.9592 26.4865 46.009 25.5841 45.9562 24.0293H53.1461C53.4523 20.6877 51.5645 18.4805 48.3528 18.4805H48.3507ZM48.4183 20.2693C49.7908 20.2693 50.6734 21.0844 50.779 22.3476H46.0048C46.161 21.0011 47.0943 20.2693 48.4162 20.2693H48.4183Z"
      fill="white" />
    <path
      d="M59.5373 26.3696C58.2619 26.3696 57.7868 25.8004 57.7868 24.1802V20.5867H60.4389V18.665H57.7868V16.4082L55.1853 16.9437V18.665H53.8086V20.5867H55.1853V24.4142C55.1853 27.3215 56.4438 28.3746 59.096 28.3746C59.607 28.3746 60.2679 28.3071 60.6606 28.208L60.3207 26.2863C59.9638 26.3359 59.7421 26.3696 59.5394 26.3696H59.5373Z"
      fill="white" />
    <path
      d="M67.6111 18.4818C65.9789 18.4818 64.9759 19.2671 64.6021 20.2032V15.5566L62.0176 16.1794V28.225H64.6021V23.3445C64.6021 21.5061 65.2652 20.6375 66.6926 20.6375C68.12 20.6375 68.7999 21.3732 68.7999 23.1938V28.225H71.3845V22.9598C71.3845 19.7014 70.0247 18.4798 67.6111 18.4798V18.4818Z"
      fill="white" />
    <path
      d="M78.0827 18.4805C75.5319 18.4805 73.0508 20.0015 73.0508 23.4443C73.0508 26.8871 75.5319 28.4419 78.0827 28.4419C80.6334 28.4419 83.0976 26.9208 83.0976 23.4443C83.0976 19.9678 80.6165 18.4805 78.0827 18.4805ZM78.0827 26.3179C76.6383 26.3179 75.6185 25.2648 75.6185 23.4443C75.6185 21.6238 76.6383 20.5866 78.0658 20.5866C79.4932 20.5866 80.53 21.6555 80.53 23.4443C80.53 25.2331 79.527 26.3179 78.0827 26.3179Z"
      fill="white" />
    <path
      d="M87.0422 21.2725C87.0422 20.6379 87.6715 20.269 88.7421 20.269C89.6099 20.269 90.3574 20.6538 90.6467 21.3042L92.9589 20.9036C92.4838 19.4163 90.6805 18.4961 88.6745 18.4961C86.261 18.4961 84.5274 19.6324 84.4936 21.3538C84.4598 25.1813 90.596 23.6265 90.596 25.5323C90.596 26.2007 89.933 26.5854 88.778 26.5854C87.6229 26.5854 86.8395 26.1511 86.4827 25.3995L84.1367 25.7842C84.6118 27.339 86.3475 28.392 88.7611 28.392C91.4808 28.392 93.1975 27.2061 93.1975 25.3003C93.1975 21.4728 87.0444 23.1783 87.0444 21.2725H87.0422Z"
      fill="white" />
    <path
      d="M29.2855 18.1347C31.5304 18.1347 33.3503 16.3456 33.3503 14.1386C33.3503 11.9317 31.5304 10.1426 29.2855 10.1426C27.0406 10.1426 25.2207 11.9317 25.2207 14.1386C25.2207 16.3456 27.0406 18.1347 29.2855 18.1347Z"
      fill="#61CE80" />
    <path
      d="M32.1023 18.5116C34.2814 17.9821 36.3339 19.7749 36.034 21.9623C35.4027 26.5592 31.9904 30.5315 27.1316 31.7095C22.2729 32.8895 17.3741 30.9341 14.6396 27.1522C13.3388 25.3555 14.3081 22.8309 16.4872 22.3014L32.1023 18.5116Z"
      fill="#61CE80" />
    <path
      d="M17.3968 21.0175C19.6417 21.0175 21.4616 19.2284 21.4616 17.0215C21.4616 14.8145 19.6417 13.0254 17.3968 13.0254C15.1519 13.0254 13.332 14.8145 13.332 17.0215C13.332 19.2284 15.1519 21.0175 17.3968 21.0175Z"
      fill="#61CE80" />
  </g>
  <defs>
    <linearGradient id="paint0_linear_4564_16979" x1="24.7423" y1="142.348" x2="148.04"
      y2="-0.0434696" gradientUnits="userSpaceOnUse">
      <stop stop-color="#11ED8B" />
      <stop offset="0.476182" stop-color="#11ED8B" stop-opacity="0.39" />
      <stop offset="1" stop-color="#11ED8B" stop-opacity="0" />
    </linearGradient>
    <linearGradient id="paint1_linear_4564_16979" x1="249.926" y1="44.4023" x2="117.645"
      y2="181.121" gradientUnits="userSpaceOnUse">
      <stop stop-color="#11ED8B" />
      <stop offset="0.614147" stop-color="#11ED8B" stop-opacity="0.65" />
      <stop offset="1" stop-color="#11ED8B" stop-opacity="0" />
    </linearGradient>
    <clipPath id="clip0_4564_16979">
      <rect width="324" height="194" fill="white" />
    </clipPath>
    <clipPath id="clip1_4564_16979">
      <rect width="324" height="194" rx="8" fill="white" />
    </clipPath>
    <clipPath id="clip2_4564_16979">
      <rect width="332" height="210" fill="white" />
    </clipPath>
    <clipPath id="clip3_4564_16979">
      <rect width="71.3333" height="21.9092" fill="white" transform="translate(241.334 10.1426)" />
    </clipPath>
  </defs>
</svg>
  