<svg width="110" height="110" viewBox="0 0 110 110" fill="none" xmlns="http://www.w3.org/2000/svg">
<g id="avatar-6 1">
<path id="Vector" d="M72.9291 11.67C63.4791 2.22002 48.1491 2.22002 38.6891 11.67C29.2391 21.12 29.2391 36.45 38.6891 45.91C48.1391 55.36 63.4691 55.36 72.9291 45.91C82.3791 36.46 82.3791 21.13 72.9291 11.67Z" fill="#F58A3D"/>
<path id="Vector_2" d="M29.6104 85.04C23.0304 82.3 21.2204 73.78 26.1804 68.66C36.6104 57.91 52.9404 54.02 67.6104 60.12C82.2804 66.22 91.0404 80.53 90.7804 95.51C90.6604 102.64 83.3404 107.37 76.7604 104.63L29.6104 85.04Z" fill="#F58A3D"/>
<path id="Vector_3" d="M58.3691 37.57C57.7691 37.57 57.2891 37.09 57.2891 36.49V21.6L57.6491 21.28C58.4691 20.54 60.7391 18.81 64.0291 18.74C67.5491 18.66 69.9591 20.49 70.8291 21.28C71.2691 21.68 71.3091 22.36 70.9091 22.81C70.5091 23.26 69.8291 23.29 69.3791 22.89C68.6991 22.27 66.8291 20.85 64.0691 20.91C61.8791 20.96 60.2691 21.94 59.4491 22.59V36.5C59.4491 37.1 58.9691 37.58 58.3691 37.58V37.57Z" fill="#191C58"/>
<path id="Vector_4" d="M55.8193 45.24C55.6493 45.24 55.4693 45.24 55.2993 45.24C53.7093 45.19 52.1393 44.88 50.6293 44.34C50.0693 44.14 49.7793 43.52 49.9793 42.95C50.1793 42.39 50.7993 42.1 51.3693 42.3C52.6593 42.77 54.0093 43.03 55.3693 43.08C57.0293 43.14 58.6793 42.88 60.2593 42.3C60.8193 42.1 61.4393 42.39 61.6393 42.95C61.8393 43.51 61.5493 44.13 60.9893 44.33C59.3193 44.94 57.5793 45.24 55.8093 45.24H55.8193Z" fill="#191C58"/>
<path id="Vector_5" d="M70.0996 66.99C70.0996 66.99 69.9996 66.99 69.9496 66.98L45.1896 63.6L42.5296 56.86C42.3096 56.3 42.5796 55.68 43.1396 55.46C43.6996 55.24 44.3196 55.51 44.5396 56.07L46.7296 61.63L70.2296 64.84C70.8196 64.92 71.2396 65.47 71.1596 66.06C71.0896 66.6 70.6196 67 70.0896 67L70.0996 66.99Z" fill="#191C58"/>
</g>
</svg>
