<svg width="301" height="204" viewBox="0 0 301 204" fill="none" xmlns="http://www.w3.org/2000/svg">
  <path
    d="M108.501 159.14C112.517 159.14 115.773 155.498 115.773 151.006C115.773 146.513 112.517 142.871 108.501 142.871C104.484 142.871 101.229 146.513 101.229 151.006C101.229 155.498 104.484 159.14 108.501 159.14Z"
    fill="#47A6F4" />
  <path
    d="M118.093 171.19C120.258 171.19 122.014 169.226 122.014 166.804C122.014 164.382 120.258 162.418 118.093 162.418C115.927 162.418 114.172 164.382 114.172 166.804C114.172 169.226 115.927 171.19 118.093 171.19Z"
    fill="#47A6F4" />
  <path
    d="M76.1238 140.639C63.2074 140.639 50.4277 138.441 38.4232 134.101C24.1846 128.955 14.2362 121.769 8.00371 112.145C-1.21969 97.8905 1.39277 80.5046 3.12529 68.999C3.21648 68.387 3.30766 67.7954 3.38973 67.2191C5.09034 55.688 7.93988 36.3845 22.256 22.13C39.3533 5.10113 63.9186 3.60173 80.6876 9.67072C89.2043 12.7511 93.2757 16.7087 97.5888 20.9009C102.198 25.3838 106.963 30.0146 118.133 34.4108C124.931 37.0832 130.028 38.0471 134.528 38.8988C141.13 40.1483 146.341 41.1326 152.61 46.9007C154.11 48.2828 167.264 60.9308 167.063 79.5305C166.844 99.4358 152.414 112.262 148.001 115.715C132.609 127.761 114.321 135.835 95.1131 139.058C88.8031 140.119 82.4475 140.644 76.1283 140.644L76.1238 140.639ZM61.4338 10.451C48.8502 10.451 35.2226 14.6381 24.6633 25.1492C11.3046 38.4551 8.69216 56.1572 6.9642 67.877C6.87757 68.4584 6.78639 69.0551 6.6952 69.6722C4.96724 81.1574 2.60098 96.8909 10.9399 109.774C16.7028 118.678 26.0584 125.374 39.5402 130.25C74.797 143 115.561 136.161 145.926 112.395C149.989 109.218 163.247 97.4519 163.447 79.4744C163.63 62.7617 151.68 51.2765 150.317 50.0219C144.796 44.9423 140.236 44.0804 133.931 42.887C129.517 42.0557 124.023 41.0153 116.938 38.2256C105.116 33.5744 99.8593 28.4642 95.2226 23.9558C91.0235 19.8758 87.3989 16.3517 79.5843 13.5212C74.1998 11.573 67.9627 10.451 61.4475 10.451H61.4338Z"
    fill="#47A6F4" />
  <path
    d="M79.7758 63.0157C88.5511 63.0157 95.6648 55.0583 95.6648 45.2422C95.6648 35.4262 88.5511 27.4688 79.7758 27.4688C71.0005 27.4688 63.8867 35.4262 63.8867 45.2422C63.8867 55.0583 71.0005 63.0157 79.7758 63.0157Z"
    fill="#FFBE5D" />
  <path
    d="M219.077 184.82C223.093 184.82 226.349 181.178 226.349 176.685C226.349 172.193 223.093 168.551 219.077 168.551C215.06 168.551 211.805 172.193 211.805 176.685C211.805 181.178 215.06 184.82 219.077 184.82Z"
    fill="#61CD80" />
  <path
    d="M209.771 197.585C211.936 197.585 213.692 195.621 213.692 193.199C213.692 190.776 211.936 188.812 209.771 188.812C207.605 188.812 205.85 190.776 205.85 193.199C205.85 195.621 207.605 197.585 209.771 197.585Z"
    fill="#61CD80" />
  <path d="M180.396 113.817L172.125 60.5324L239.607 48.6953L245.889 96.0539L180.396 113.817Z"
    fill="#191C58" />
  <path d="M245.888 96.0547L282.609 108.264L218.104 133.795L180.395 113.818L245.888 96.0547Z"
    fill="#61CD80" />
  <path
    d="M180.395 113.816L218.104 133.792L282.609 108.262L283.27 119.732L221.743 147.114L180.408 121.955L180.395 113.816Z"
    fill="#191C58" />
  <path
    d="M270.02 107.248C269.824 106.575 269.172 106.213 268.575 106.432L260.56 109.395L253.958 106.606L258.235 105.172C258.841 104.968 259.183 104.254 259.005 103.581C258.823 102.903 258.185 102.52 257.583 102.719L250.434 105.111L244.219 102.485L246.741 101.725C247.352 101.541 247.712 100.837 247.548 100.154C247.384 99.4707 246.754 99.0678 246.148 99.2514L217.52 107.845C217.343 107.85 217.165 107.901 217.01 107.998L195.212 114.541C194.601 114.725 194.241 115.429 194.405 116.112C194.542 116.683 195.002 117.061 195.508 117.061C195.609 117.061 195.704 117.045 195.805 117.015L203.282 114.771L210.371 118.514L205.985 119.983C205.379 120.187 205.037 120.901 205.215 121.574C205.365 122.13 205.817 122.487 206.309 122.487C206.419 122.487 206.528 122.472 206.637 122.431L213.467 120.146L220.876 124.053L217.858 125.17C217.256 125.389 216.932 126.113 217.128 126.786C217.288 127.322 217.735 127.663 218.213 127.663C218.332 127.663 218.455 127.643 218.574 127.597L260.533 112.088C260.615 112.108 260.697 112.119 260.774 112.119C261.102 112.119 261.408 111.955 261.627 111.68L269.291 108.844C269.893 108.625 270.216 107.901 270.02 107.228V107.248ZM257.104 110.675L248.186 113.97L242.259 110.522L250.343 107.814L257.104 110.67V110.675ZM235.584 118.631L229.352 114.842L239.109 111.578L245.154 115.092L235.584 118.631ZM230.633 106.57C230.715 106.667 230.806 106.748 230.92 106.815L236.195 109.885L226.516 113.123L220.662 109.569L230.633 106.575V106.57ZM240.526 103.668L246.818 106.325L239.346 108.824L233.82 105.611L240.449 103.622C240.476 103.637 240.499 103.653 240.531 103.668H240.526ZM206.697 113.756L217.457 110.527L223.429 114.154L213.654 117.423L206.701 113.756H206.697ZM216.75 119.06L226.261 115.877L232.602 119.733L224.026 122.9L216.745 119.06H216.75Z"
    fill="#191C58" />
  <path
    d="M123.841 69.9201C123.44 69.9201 123.066 69.6651 122.884 69.2571C120.896 64.8048 117.95 63.5706 114.134 65.5749C113.596 65.8554 112.958 65.6004 112.707 64.9986C112.456 64.3968 112.684 63.6828 113.222 63.4023C117.435 61.1889 121.169 62.1987 123.713 66.1512C124.539 64.6518 125.724 63.387 127.105 62.5863C129.171 61.3929 131.601 61.2603 134.131 62.2038C134.692 62.4129 134.998 63.0912 134.811 63.7236C134.624 64.3509 134.017 64.6926 133.456 64.4835C131.46 63.7389 129.654 63.8154 128.095 64.7232C126.303 65.7585 125.254 67.6506 124.871 69.0735C124.744 69.5427 124.374 69.8793 123.937 69.9201C123.905 69.9201 123.877 69.9201 123.846 69.9201H123.841Z"
    fill="#191C58" />
  <path
    d="M115.156 57.3399C115.128 57.3399 115.101 57.3399 115.074 57.3399C114.572 57.2991 114.166 56.8707 114.093 56.3148C113.829 54.2187 112.913 52.4847 111.65 51.6687C110.41 50.868 108.823 50.8935 106.935 51.7503C106.384 52.0002 105.759 51.7044 105.54 51.0873C105.317 50.4753 105.581 49.7715 106.133 49.5267C109.283 48.0987 111.458 48.7719 112.726 49.5879C113.756 50.2509 114.604 51.2607 115.22 52.5102C116.437 49.746 118.717 47.2062 123.723 48.7566C124.293 48.9351 124.63 49.593 124.47 50.2305C124.311 50.868 123.723 51.2454 123.153 51.0669C118.452 49.6134 117.262 52.5255 116.191 56.4882C116.054 56.9982 115.634 57.3399 115.165 57.3399H115.156Z"
    fill="#191C58" />
  <path
    d="M112.791 81.824C119.593 81.9056 126.419 82.0893 133.039 84.1293C135.369 84.8484 137.858 85.9193 139.048 88.2755C140.475 91.1009 139.486 94.7016 137.981 97.476C133.955 104.907 126.838 109.42 120.036 113.607C115.723 116.259 111.031 120.278 106.376 122.017C101.981 123.659 98.7485 120.482 94.8959 118.325C74.1193 103.861 48.3366 98.6744 24.3549 104.137C20.2105 105.08 15.0038 105.906 12.5555 102.046C0.0949841 82.4003 74.2561 81.7883 78.7971 81.6914C88.212 81.4925 97.6315 81.513 107.046 81.7374C108.957 81.7833 110.872 81.7985 112.786 81.8189L112.791 81.824Z"
    fill="#47A6F4" />
  <path
    d="M40.7404 67.5191L62.9714 77.4131C62.3057 71.6552 58.9456 66.4634 53.7799 64.1684C51.6006 63.1994 49.3392 62.8577 47.1507 63.0515L62.9486 55.9778C58.9228 52.316 53.2875 51.1379 48.131 53.4482C46.8498 54.0194 45.6826 54.7742 44.6386 55.6667L51.7374 41.3867C46.5489 41.3867 41.5155 44.4467 38.8118 49.8833C37.9456 51.6275 37.3939 53.4788 37.1294 55.3403C36.2677 53.7287 35.1462 52.2548 33.7693 51.0053C29.4562 47.0834 23.7662 46.3337 18.9471 48.491L30.2814 58.7981C29.0139 58.4003 27.6826 58.1912 26.3012 58.1912C20.7434 58.1912 15.906 61.6235 13.3848 66.698H30.4C28.3027 67.4273 26.3149 68.6819 24.6143 70.4924C20.5839 74.7713 19.1887 80.9882 20.4836 86.6135L38.5428 67.4273C38.4152 73.7666 37.8954 80.9219 36.6826 88.679C35.1598 98.4302 32.9121 106.825 30.6462 113.654H45.131C45.4729 106.05 45.3681 96.8135 44.1234 86.4299C43.289 79.4531 42.0763 73.1291 40.7267 67.5242L40.7404 67.5191Z"
    fill="#ED6336" />
  <path
    d="M191.538 162.155C172.836 162.155 156.728 159.763 144.824 146.809C138.245 139.648 134.67 131.733 134.214 123.282C133.813 115.872 135.819 108.416 140.182 101.118C143.15 96.1555 146.123 93.6463 148.749 91.4329C149.825 90.5251 150.837 89.6734 151.813 88.6942C158.333 82.1305 158.72 74.4091 159.163 65.4688C159.518 58.3033 159.887 50.8879 163.612 43.6306C175.995 19.5127 215.16 18.049 237.728 24.6535C243.345 26.2957 253.799 29.3557 263.315 39.0151C273.65 49.5058 279.591 60.379 280.973 71.3287C281.023 71.7112 281.068 72.1243 281.114 72.5629C281.451 75.5668 281.907 79.6825 284.333 84.0634C285.774 86.6644 287.082 87.8782 288.596 89.2858C289.558 90.1834 290.652 91.1932 291.815 92.6212C296.953 98.9401 301.202 110.124 298.394 119.743C295.416 129.943 288.641 135.614 281.365 140.995C272.337 147.671 264.144 150.369 257.173 152.378C238.913 157.636 226.854 161.104 208.138 161.762H208.047C202.362 161.966 196.845 162.155 191.538 162.155ZM212.588 25.2808C207.377 25.2808 202.202 25.7143 197.346 26.6017C178.366 30.0595 170.232 38.8672 166.749 45.6502C163.448 52.0762 163.106 58.9969 162.774 65.6932C162.327 74.7049 161.862 84.0226 154.229 91.7032C153.14 92.7997 152.014 93.7483 150.924 94.6663C148.412 96.7828 145.818 98.9707 143.191 103.367C139.28 109.915 137.474 116.53 137.825 123.038C138.226 130.448 141.432 137.471 147.35 143.907C161.533 159.339 183.035 158.585 207.938 157.718H208.029C226.343 157.075 238.248 153.648 256.275 148.461C262.963 146.538 270.815 143.953 279.372 137.624C286.348 132.462 292.334 127.464 294.956 118.494C297.208 110.777 293.734 101.011 289.138 95.3548C288.149 94.1359 287.246 93.2995 286.289 92.4121C284.675 90.9178 283.011 89.3674 281.26 86.2054C278.419 81.0748 277.886 76.2604 277.53 73.078C277.485 72.6649 277.439 72.2722 277.394 71.905C276.135 61.9192 270.582 51.8671 260.889 42.0241C252.035 33.0328 242.511 30.2482 236.816 28.5805C229.384 26.4028 220.936 25.291 212.597 25.291L212.588 25.2808Z"
    fill="#61CD80" />
  <path
    d="M188.273 101.607C181.991 95.3599 182.665 81.8398 181.316 73.3177C180.969 71.1349 180.641 68.7889 181.466 66.7693C182.825 63.4594 186.554 62.5159 189.773 61.9804C200.442 60.2056 211.106 58.4359 221.775 56.6611C225.851 55.9828 230.761 54.4477 233.948 57.37C236.98 60.1495 237.609 65.7136 238.115 70.0639C238.918 76.9438 242.392 87.6436 238.64 92.5192C235.699 96.3442 210.395 101.393 202.927 103.234C197.925 104.463 193.53 106.024 189.039 102.301C188.775 102.082 188.519 101.852 188.278 101.607H188.273Z"
    fill="white" />
</svg>
  