<svg width="301" height="204" viewBox="0 0 301 204" fill="none" xmlns="http://www.w3.org/2000/svg">
<path d="M108.5 159.14C112.516 159.14 115.772 155.499 115.772 151.006C115.772 146.513 112.516 142.871 108.5 142.871C104.483 142.871 101.228 146.513 101.228 151.006C101.228 155.499 104.483 159.14 108.5 159.14Z" fill="#47A6F4"/>
<path d="M118.093 171.192C120.258 171.192 122.014 169.228 122.014 166.806C122.014 164.383 120.258 162.42 118.093 162.42C115.927 162.42 114.172 164.383 114.172 166.806C114.172 169.228 115.927 171.192 118.093 171.192Z" fill="#47A6F4"/>
<path d="M76.1247 140.638C63.2083 140.638 50.4287 138.44 38.4241 134.099C24.1855 128.954 14.2372 121.768 8.00469 112.144C-1.21871 97.8894 1.39375 80.5035 3.12627 68.9979C3.21746 68.3859 3.30864 67.7943 3.39071 67.218C5.09132 55.6869 7.94086 36.3834 22.257 22.1289C39.3542 5.10003 63.9196 3.60063 80.6886 9.66963C89.2053 12.75 93.2767 16.7076 97.5898 20.8998C102.199 25.3827 106.964 30.0135 118.134 34.4097C124.932 37.0821 130.029 38.046 134.529 38.8977C141.131 40.1472 146.342 41.1315 152.611 46.8996C154.111 48.2817 167.265 60.9297 167.064 79.5294C166.845 99.4347 152.415 112.261 148.002 115.714C132.61 127.76 114.322 135.833 95.1141 139.057C88.8041 140.117 82.4485 140.643 76.1293 140.643L76.1247 140.638ZM61.4348 10.4499C48.8512 10.4499 35.2235 14.637 24.6643 25.1481C11.3056 38.454 8.69314 56.1561 6.96518 67.8759C6.87855 68.4573 6.78736 69.054 6.69618 69.6711C4.96822 81.1563 2.60195 96.8898 10.9409 109.772C16.7038 118.677 26.0594 125.373 39.5412 130.249C74.798 142.999 115.562 136.16 145.927 112.394C149.99 109.217 163.248 97.4508 163.448 79.4733C163.631 62.7606 151.681 51.2754 150.318 50.0208C144.796 44.9412 140.237 44.0793 133.932 42.8859C129.518 42.0546 124.024 41.0142 116.939 38.2245C105.117 33.5733 99.8603 28.4631 95.2235 23.9547C91.0244 19.8747 87.3998 16.3506 79.5852 13.5201C74.2007 11.5719 67.9637 10.4499 61.4485 10.4499H61.4348Z" fill="#47A6F4"/>
<path d="M79.7768 63.0156C88.552 63.0156 95.6658 55.0582 95.6658 45.2421C95.6658 35.4261 88.552 27.4686 79.7768 27.4686C71.0015 27.4686 63.8877 35.4261 63.8877 45.2421C63.8877 55.0582 71.0015 63.0156 79.7768 63.0156Z" fill="#FFBE5D"/>
<path d="M219.076 184.819C223.092 184.819 226.348 181.177 226.348 176.684C226.348 172.192 223.092 168.55 219.076 168.55C215.06 168.55 211.804 172.192 211.804 176.684C211.804 181.177 215.06 184.819 219.076 184.819Z" fill="#61CD80"/>
<path d="M209.771 197.584C211.936 197.584 213.692 195.621 213.692 193.198C213.692 190.776 211.936 188.812 209.771 188.812C207.605 188.812 205.85 190.776 205.85 193.198C205.85 195.621 207.605 197.584 209.771 197.584Z" fill="#61CD80"/>
<path d="M180.396 113.817L172.125 60.5319L239.607 48.6948L245.889 96.0534L180.396 113.817Z" fill="#191C58"/>
<path d="M245.889 96.0533L282.61 108.263L218.105 133.793L180.396 113.817L245.889 96.0533Z" fill="#61CD80"/>
<path d="M180.396 113.817L218.105 133.793L282.61 108.263L283.271 119.733L221.744 147.115L180.409 121.956L180.396 113.817Z" fill="#191C58"/>
<path d="M270.021 107.248C269.825 106.575 269.173 106.213 268.576 106.432L260.561 109.395L253.959 106.605L258.236 105.172C258.842 104.968 259.184 104.254 259.006 103.581C258.824 102.903 258.186 102.52 257.584 102.719L250.435 105.111L244.22 102.485L246.742 101.725C247.353 101.541 247.713 100.837 247.549 100.154C247.385 99.4704 246.755 99.0675 246.149 99.2511L217.521 107.845C217.344 107.85 217.166 107.901 217.011 107.998L195.213 114.541C194.602 114.725 194.242 115.428 194.406 116.112C194.543 116.683 195.003 117.06 195.509 117.06C195.61 117.06 195.705 117.045 195.806 117.014L203.283 114.77L210.372 118.514L205.986 119.983C205.38 120.187 205.038 120.901 205.216 121.574C205.366 122.13 205.818 122.487 206.31 122.487C206.42 122.487 206.529 122.471 206.638 122.431L213.468 120.146L220.877 124.052L217.859 125.169C217.257 125.389 216.933 126.113 217.129 126.786C217.289 127.322 217.736 127.663 218.214 127.663C218.333 127.663 218.456 127.643 218.575 127.597L260.534 112.088C260.616 112.108 260.698 112.118 260.775 112.118C261.103 112.118 261.409 111.955 261.628 111.68L269.292 108.844C269.894 108.625 270.217 107.901 270.021 107.228V107.248ZM257.105 110.675L248.187 113.97L242.26 110.522L250.344 107.814L257.105 110.67V110.675ZM235.585 118.631L229.353 114.842L239.11 111.578L245.155 115.092L235.585 118.631ZM230.634 106.57C230.716 106.667 230.807 106.748 230.921 106.814L236.196 109.885L226.517 113.123L220.663 109.568L230.634 106.575V106.57ZM240.527 103.668L246.819 106.325L239.347 108.824L233.821 105.611L240.45 103.622C240.477 103.637 240.5 103.652 240.532 103.668H240.527ZM206.698 113.756L217.458 110.527L223.43 114.153L213.655 117.422L206.702 113.756H206.698ZM216.751 119.06L226.261 115.877L232.603 119.733L224.027 122.9L216.746 119.06H216.751Z" fill="#191C58"/>
<path d="M123.842 69.921C123.441 69.921 123.067 69.666 122.885 69.258C120.897 64.8057 117.951 63.5715 114.135 65.5758C113.597 65.8563 112.959 65.6013 112.708 64.9995C112.457 64.3977 112.685 63.6837 113.223 63.4032C117.436 61.1898 121.17 62.1996 123.714 66.1521C124.54 64.6527 125.725 63.3879 127.106 62.5872C129.172 61.3938 131.602 61.2612 134.132 62.2047C134.693 62.4138 134.998 63.0921 134.812 63.7245C134.625 64.3518 134.018 64.6935 133.457 64.4844C131.46 63.7398 129.655 63.8163 128.096 64.7241C126.304 65.7594 125.255 67.6515 124.872 69.0744C124.745 69.5436 124.375 69.8802 123.938 69.921C123.906 69.921 123.878 69.921 123.847 69.921H123.842Z" fill="#191C58"/>
<path d="M115.157 57.3393C115.129 57.3393 115.102 57.3393 115.075 57.3393C114.573 57.2985 114.167 56.8701 114.094 56.3142C113.83 54.2181 112.914 52.4841 111.651 51.6681C110.411 50.8674 108.824 50.8929 106.936 51.7497C106.385 51.9996 105.76 51.7038 105.541 51.0867C105.318 50.4747 105.582 49.7709 106.134 49.5261C109.284 48.0981 111.459 48.7713 112.727 49.5873C113.757 50.2503 114.605 51.2601 115.221 52.5096C116.438 49.7454 118.718 47.2056 123.724 48.756C124.294 48.9345 124.631 49.5924 124.471 50.2299C124.312 50.8674 123.724 51.2448 123.154 51.0663C118.453 49.6128 117.263 52.5249 116.192 56.4876C116.055 56.9976 115.635 57.3393 115.166 57.3393H115.157Z" fill="#191C58"/>
<path d="M112.79 81.8244C119.592 81.906 126.418 82.0896 133.038 84.1296C135.368 84.8487 137.857 85.9197 139.047 88.2759C140.474 91.1013 139.485 94.7019 137.98 97.4763C133.954 104.907 126.837 109.421 120.035 113.608C115.722 116.26 111.03 120.278 106.375 122.018C101.98 123.66 98.7475 120.482 94.8949 118.325C74.1183 103.862 48.3356 98.6748 24.3539 104.137C20.2095 105.08 15.0028 105.907 12.5545 102.046C0.0940075 82.4007 74.2551 81.7887 78.7961 81.6918C88.211 81.4929 97.6305 81.5133 107.045 81.7377C108.956 81.7836 110.871 81.7989 112.785 81.8193L112.79 81.8244Z" fill="#47A6F4"/>
<path d="M40.7404 67.5189L62.9714 77.4129C62.3057 71.655 58.9456 66.4632 53.7799 64.1682C51.6006 63.1992 49.3392 62.8575 47.1507 63.0513L62.9486 55.9776C58.9228 52.3158 53.2875 51.1377 48.131 53.448C46.8498 54.0192 45.6826 54.774 44.6386 55.6665L51.7374 41.3865C46.5489 41.3865 41.5155 44.4465 38.8118 49.8831C37.9456 51.6273 37.3939 53.4786 37.1294 55.3401C36.2677 53.7285 35.1462 52.2546 33.7693 51.0051C29.4562 47.0832 23.7662 46.3335 18.9471 48.4908L30.2814 58.7979C29.0139 58.4001 27.6826 58.191 26.3012 58.191C20.7434 58.191 15.906 61.6233 13.3848 66.6978H30.4C28.3027 67.4271 26.3149 68.6817 24.6143 70.4922C20.5839 74.7711 19.1887 80.988 20.4836 86.6133L38.5428 67.4271C38.4152 73.7664 37.8954 80.9217 36.6826 88.6788C35.1598 98.43 32.9121 106.825 30.6462 113.653H45.131C45.4729 106.049 45.3681 96.8133 44.1234 86.4297C43.289 79.4529 42.0763 73.1289 40.7267 67.524L40.7404 67.5189Z" fill="#ED6336"/>
<path d="M191.538 162.154C172.836 162.154 156.728 159.763 144.824 146.809C138.245 139.648 134.67 131.733 134.214 123.282C133.813 115.872 135.819 108.416 140.182 101.118C143.15 96.1554 146.123 93.6462 148.749 91.4328C149.825 90.525 150.837 89.6733 151.813 88.6941C158.333 82.1304 158.72 74.409 159.163 65.4687C159.518 58.3032 159.887 50.8878 163.612 43.6305C175.995 19.5126 215.16 18.0489 237.728 24.6534C243.345 26.2956 253.799 29.3556 263.315 39.015C273.65 49.5057 279.591 60.3789 280.973 71.3286C281.023 71.7111 281.068 72.1242 281.114 72.5628C281.451 75.5667 281.907 79.6824 284.333 84.0633C285.774 86.6643 287.082 87.8781 288.596 89.2857C289.558 90.1833 290.652 91.1931 291.815 92.6211C296.953 98.94 301.202 110.124 298.394 119.743C295.416 129.943 288.641 135.614 281.365 140.995C272.337 147.67 264.144 150.368 257.173 152.378C238.913 157.636 226.854 161.104 208.138 161.762H208.047C202.362 161.966 196.845 162.154 191.538 162.154ZM212.588 25.2807C207.377 25.2807 202.202 25.7142 197.346 26.6016C178.366 30.0594 170.232 38.8671 166.749 45.6501C163.448 52.0761 163.106 58.9968 162.774 65.6931C162.327 74.7048 161.862 84.0225 154.229 91.7031C153.14 92.7996 152.014 93.7482 150.924 94.6662C148.412 96.7827 145.818 98.9706 143.191 103.367C139.28 109.915 137.474 116.53 137.825 123.037C138.226 130.448 141.432 137.47 147.35 143.907C161.533 159.339 183.035 158.584 207.938 157.717H208.029C226.343 157.075 238.248 153.648 256.275 148.461C262.963 146.538 270.815 143.953 279.372 137.623C286.348 132.462 292.334 127.464 294.956 118.493C297.208 110.777 293.734 101.011 289.138 95.3547C288.149 94.1358 287.246 93.2994 286.289 92.412C284.675 90.9177 283.011 89.3673 281.26 86.2053C278.419 81.0747 277.886 76.2603 277.53 73.0779C277.485 72.6648 277.439 72.2721 277.394 71.9049C276.135 61.9191 270.582 51.867 260.889 42.024C252.035 33.0327 242.511 30.2481 236.816 28.5804C229.384 26.4027 220.936 25.2909 212.597 25.2909L212.588 25.2807Z" fill="#61CD80"/>
<path d="M188.273 101.607C181.991 95.3598 182.665 81.8397 181.316 73.3176C180.969 71.1348 180.641 68.7888 181.466 66.7692C182.825 63.4593 186.554 62.5158 189.773 61.9803C200.442 60.2055 211.106 58.4358 221.775 56.661C225.851 55.9827 230.761 54.4476 233.948 57.3699C236.98 60.1494 237.609 65.7135 238.115 70.0638C238.918 76.9437 242.392 87.6435 238.64 92.5191C235.699 96.3441 210.395 101.393 202.927 103.234C197.925 104.463 193.53 106.024 189.039 102.301C188.775 102.082 188.519 101.852 188.278 101.607H188.273Z" fill="white"/>
</svg>
