<svg width="110" height="110" viewBox="0 0 110 110" fill="none" xmlns="http://www.w3.org/2000/svg">
<g id="avatar-3 1">
<path id="Vector" d="M76.9197 51.23C66.0697 62.08 48.4797 62.08 37.6297 51.23C26.7797 40.38 26.7797 22.79 37.6297 11.94C48.4797 1.08999 66.0697 1.08999 76.9197 11.94C87.7697 22.79 87.7697 40.38 76.9197 51.23Z" fill="#F55850"/>
<path id="Vector_2" d="M34.0394 61.42C27.3394 59.28 20.5394 64.54 21.0094 71.56C21.9994 86.31 31.8094 99.65 46.7494 104.42C61.6794 109.19 77.4094 104.01 86.7694 92.56C91.2194 87.11 88.7394 78.88 82.0294 76.74L34.0394 61.41V61.42Z" fill="#F55850"/>
<path id="Vector_3" d="M57.6005 50.67C57.4305 50.67 57.2505 50.67 57.0805 50.67C55.4905 50.62 53.9205 50.31 52.4105 49.77C51.8505 49.57 51.5605 48.95 51.7605 48.38C51.9605 47.81 52.5905 47.53 53.1505 47.73C54.4405 48.2 55.7905 48.46 57.1505 48.51C58.8105 48.56 60.4605 48.31 62.0405 47.73C62.6005 47.53 63.2205 47.82 63.4205 48.38C63.6205 48.94 63.3305 49.56 62.7705 49.76C61.0905 50.37 59.3605 50.67 57.5905 50.67H57.6005Z" fill="#191C58"/>
<path id="Vector_4" d="M43.7 43.55C38.38 43.55 33.45 40.09 31.84 34.74C29.87 28.2 33.59 21.28 40.13 19.31C46.67 17.34 53.59 21.06 55.56 27.6C57.53 34.14 53.81 41.06 47.27 43.03C46.08 43.39 44.89 43.56 43.71 43.56L43.7 43.55ZM43.69 20.81C42.7 20.81 41.7 20.95 40.71 21.25C35.24 22.9 32.13 28.69 33.78 34.15C35.43 39.62 41.22 42.73 46.68 41.08C52.15 39.43 55.26 33.64 53.61 28.18C52.26 23.7 48.14 20.81 43.69 20.81Z" fill="#191C58"/>
<path id="Vector_5" d="M71.7091 42.69C66.7791 42.69 62.2091 39.48 60.7191 34.52C59.8391 31.59 60.1491 28.48 61.5991 25.78C63.0491 23.08 65.4691 21.11 68.3991 20.22C74.4591 18.39 80.8691 21.84 82.6991 27.9C84.5191 33.96 81.0791 40.37 75.0191 42.2C73.9191 42.53 72.8091 42.69 71.7191 42.69H71.7091ZM71.6991 21.76C70.7991 21.76 69.8891 21.89 68.9791 22.16C66.5591 22.89 64.5691 24.51 63.3791 26.74C62.1891 28.96 61.9291 31.52 62.6591 33.94C64.1591 38.93 69.4391 41.77 74.4291 40.26C79.4191 38.76 82.2591 33.48 80.7491 28.49C79.5191 24.41 75.7591 21.76 71.6991 21.76Z" fill="#191C58"/>
<path id="Vector_6" d="M61.2391 32.28C61.2391 32.28 61.1591 32.28 61.1191 32.28L55.2691 31.59C54.7091 31.52 54.3191 31.02 54.3791 30.47C54.4491 29.91 54.9491 29.52 55.4991 29.58L61.3491 30.27C61.9091 30.34 62.2991 30.84 62.2391 31.39C62.1791 31.9 61.7391 32.28 61.2391 32.28Z" fill="#191C58"/>
<path id="Vector_7" d="M65.9301 94.87L40.0601 60.25C39.7001 59.77 39.8001 59.09 40.2801 58.74C40.7601 58.38 41.4401 58.48 41.7901 58.96L63.2001 87.6L61.5801 66.63C61.5301 66.03 61.9801 65.51 62.5701 65.47C63.1701 65.42 63.6901 65.87 63.7301 66.46L65.9301 94.87Z" fill="#191C58"/>
</g>
</svg>
