<svg width="110" height="110" viewBox="0 0 110 110" fill="none" xmlns="http://www.w3.org/2000/svg">
<g id="avatar-1 1">
<path id="Vector" d="M71.2998 10.66C62.8998 2.25999 49.2898 2.25999 40.8898 10.66C32.4898 19.06 32.4898 32.67 40.8898 41.07C49.2898 49.47 62.8998 49.47 71.2998 41.07C79.6998 32.67 79.6998 19.06 71.2998 10.66Z" fill="#F4BD34"/>
<path id="Vector_2" d="M42.2206 26.94C34.8006 26.94 28.1106 22.67 25.9506 15.85C25.7706 15.28 26.0906 14.67 26.6506 14.49C27.2206 14.31 27.8306 14.63 28.0106 15.19C30.3806 22.67 39.1406 26.59 47.5506 23.93C55.9606 21.27 60.8706 13.02 58.5006 5.53999C58.3206 4.96999 58.6406 4.35999 59.2006 4.17999C59.7706 3.99999 60.3806 4.31999 60.5606 4.87999C63.2906 13.5 57.7406 22.97 48.2006 25.99C46.2006 26.62 44.1806 26.92 42.2106 26.92L42.2206 26.94Z" fill="#191C58"/>
<path id="Vector_3" d="M55.1806 38.2401C55.0106 38.2401 54.8406 38.2401 54.6606 38.2401C53.0706 38.1901 51.5006 37.8801 49.9906 37.3401C49.4306 37.1401 49.1406 36.5201 49.3406 35.9501C49.5406 35.3901 50.1606 35.1001 50.7306 35.3001C52.0206 35.7701 53.3706 36.0301 54.7306 36.0801C56.4006 36.1401 58.0406 35.8801 59.6206 35.3001C60.1806 35.1001 60.8006 35.3901 61.0006 35.9501C61.2006 36.5101 60.9106 37.1301 60.3506 37.3301C58.6806 37.9401 56.9406 38.2401 55.1706 38.2401H55.1806Z" fill="#191C58"/>
<path id="Vector_4" d="M64.7401 55.99C59.0901 51.12 50.3001 53.52 47.8401 60.56L30.5801 110H70.0301C72.6101 106.7 74.7101 102.92 76.1701 98.74C81.6501 83.05 76.6001 66.23 64.7401 55.99Z" fill="#F4BD34"/>
</g>
</svg>
