<svg width="52" height="28" viewBox="0 0 52 28" fill="none" xmlns="http://www.w3.org/2000/svg">
  <rect width="52" height="27.9999" rx="14" fill="white" />
  <path
    d="M21.6472 8.21191L16.9984 19.8184H13.9284L11.5677 10.556C11.4243 9.98553 11.301 9.77653 10.8723 9.53618C10.1725 9.14449 9.01801 8.77738 8.00267 8.54941L8.06992 8.2121H13.0117C13.6416 8.2121 14.21 8.64559 14.3567 9.39549L15.6123 16.1115L18.5963 8.21191L21.6472 8.21191ZM33.7143 16.0288C33.7117 12.9656 29.6012 12.7968 29.6228 11.4284C29.6296 11.012 30.011 10.5692 30.85 10.4562C31.2659 10.3999 32.4123 10.3569 33.7157 10.9756L34.2138 8.51438C33.5138 8.25235 32.6134 8 31.4948 8C28.6241 8 26.6116 9.57759 26.6055 11.8366C26.5951 13.5074 28.0602 14.4398 29.1632 14.995C30.2979 15.5636 30.6796 15.929 30.6777 16.4376C30.6735 17.2161 29.7803 17.5598 28.9442 17.5733C27.4846 17.5966 26.6354 17.165 25.9586 16.8405L25.4446 19.3831C26.1247 19.705 27.3786 19.9858 28.6773 19.9999C31.7284 19.9997 33.7167 18.4419 33.7143 16.0288ZM41.313 19.8184H43.9991L41.598 8.21191H39.1188C38.5613 8.21191 38.0927 8.54747 37.887 9.0634L33.5811 19.8184H36.6307L37.2279 18.0846H40.954L41.313 19.8184ZM38.0525 15.7058L39.5599 11.3481L40.4609 15.7058L38.0525 15.7058ZM25.797 8.21191L23.452 19.8184H20.5478L22.8938 8.21191H25.797Z"
    fill="#191B59" />
</svg>
  